<svg width="48" height="40" viewBox="0 0 48 40" fill="none" xmlns="http://www.w3.org/2000/svg">
<path fill-rule="evenodd" clip-rule="evenodd" d="M9.4405 19H0.666504V6C0.666504 4.4087 1.29864 2.88258 2.42386 1.75736C3.54908 0.632141 5.0752 0 6.6665 0H19.6665V8.774C19.6665 10.776 19.5445 12.85 18.4945 14.554C17.6738 15.886 16.5525 17.0073 15.2205 17.828C13.5165 18.878 11.4425 19 9.4405 19ZM46.5357 3.41421C46.9108 3.03914 47.1215 2.53043 47.1215 2C47.1215 1.46957 46.9108 0.960859 46.5357 0.585786C46.1606 0.210714 45.6519 0 45.1215 0C44.5911 0 44.0824 0.210714 43.7073 0.585786C43.3322 0.960859 43.1215 1.46957 43.1215 2C43.1215 2.53043 43.3322 3.03914 43.7073 3.41421C44.0824 3.78929 44.5911 4 45.1215 4C45.6519 4 46.1606 3.78929 46.5357 3.41421ZM40.6664 20C40.6664 31.046 31.7124 40 20.6664 40C9.95643 40 1.21343 31.581 0.69043 21H9.44043C11.4424 21 13.5164 21.122 15.2204 22.172C16.4416 22.9237 17.4868 23.9293 18.2851 25.1205C19.0835 26.3118 19.6163 27.6607 19.8474 29.076L19.9094 29.459C19.9634 29.6169 20.0654 29.754 20.2011 29.851C20.3369 29.9481 20.4996 30.0003 20.6664 30.0003C20.8333 30.0003 20.996 29.9481 21.1317 29.851C21.2675 29.754 21.3695 29.6169 21.4234 29.459L21.4854 29.076C21.8232 27.0082 22.802 25.0987 24.2835 23.6171C25.7651 22.1356 27.6746 21.1568 29.7424 20.819L30.1254 20.757C30.2833 20.703 30.4204 20.601 30.5174 20.4653C30.6145 20.3296 30.6667 20.1669 30.6667 20C30.6667 19.8331 30.6145 19.6704 30.5174 19.5347C30.4204 19.399 30.2833 19.297 30.1254 19.243L29.7424 19.181C28.3272 18.9499 26.9781 18.4171 25.7869 17.6188C24.5957 16.8204 23.5901 15.7752 22.8384 14.554C21.7884 12.85 21.6664 10.776 21.6664 8.774V0H34.6664C36.2577 0 37.7839 0.632141 38.9091 1.75736C40.0343 2.88258 40.6664 4.4087 40.6664 6V20Z" fill="#0E1534" style="fill:#0E1534;fill:color(display-p3 0.0549 0.0824 0.2039);fill-opacity:1;"/>
</svg>
