<svg width="181" height="50" viewBox="0 0 181 50" fill="none" xmlns="http://www.w3.org/2000/svg">
<path d="M45.0329 0.520585C45.0676 0.352841 45.0965 0.179312 45.1052 0C45.093 0.0930503 45.08 0.184492 45.067 0.275597L45.0669 0.27655L45.0669 0.276773L45.0666 0.278327C45.0552 0.359017 45.0437 0.439518 45.0329 0.520585Z" fill="#331C4D"/>
<path d="M2.28101 0.766422C2.25497 0.592894 2.23182 0.422258 2.20867 0.245838C2.22024 0.42515 2.24628 0.598678 2.28101 0.766422Z" fill="#331C4D"/>
<path d="M36.1717 26.2437C34.472 26.2437 33.0877 24.8601 33.0877 23.1614C33.0877 21.4627 34.472 20.0791 36.1717 20.0791C37.8713 20.0791 39.2557 21.4627 39.2557 23.1614C39.2557 24.8601 37.8713 26.2437 36.1717 26.2437Z" fill="#331C4D"/>
<path d="M16.83 26.2437C15.1304 26.2437 13.746 24.8601 13.746 23.1614C13.746 21.4627 15.1304 20.0791 16.83 20.0791C18.5297 20.0791 19.914 21.4627 19.914 23.1614C19.914 24.8601 18.5297 26.2437 16.83 26.2437Z" fill="#331C4D"/>
<path fillRule="evenodd" clipRule="evenodd" d="M33.7647 6.53047C29.2476 7.61791 25.263 10.4551 23.9029 14.3537C23.8103 14.6169 23.4399 14.6169 23.3473 14.3537C21.5557 9.11443 16.4304 7.68018 11.6245 6.3353C8.15593 5.36467 4.85376 4.4406 3.09125 2.16624C2.89737 1.91751 2.50093 2.08815 2.5617 2.39761C3.33975 6.25698 4.74223 8.81447 6.46227 10.613C2.69841 14.7316 0.267226 20.4371 0.00366329 26.2346C-0.129448 33.6645 3.36906 40.8891 9.84232 45.716C10.6352 46.3234 11.5872 46.5461 12.5306 46.3899C13.5463 47.3645 14.6806 48.1541 15.9249 48.7557C17.039 49.2994 18.3586 49.1924 19.3714 48.5127C20.28 49.1259 21.3188 49.6002 22.4995 49.8807C23.0869 50.0398 23.7148 50.0398 24.2994 49.8807C25.4829 49.6002 26.5189 49.1259 27.4275 48.5127C28.4403 49.1953 29.7598 49.3023 30.8739 48.7557C32.1182 48.1541 33.2525 47.3645 34.2682 46.3899C35.2087 46.5432 36.1607 46.3234 36.9565 45.716C43.4385 40.8775 46.9283 33.6645 46.7952 26.2346H46.7981C46.5332 20.5143 44.1602 14.8746 40.48 10.768C42.3206 8.98207 43.8384 6.42077 44.6856 2.47859C44.7493 2.17781 44.3702 1.99271 44.1706 2.22697C42.4995 4.17396 38.9079 5.12926 35.9777 5.90865C35.1734 6.12258 34.4189 6.32327 33.7676 6.52758L33.7647 6.53047ZM28.7747 16.7621C29.3529 16.428 29.9666 16.1337 30.6045 15.8593C31.3801 15.5975 32.2104 15.4556 33.0731 15.4556C37.3385 15.4556 40.811 18.9261 40.811 23.1891C40.811 27.4521 37.3385 30.9227 33.0731 30.9227C28.8049 30.9227 25.3353 27.4521 25.3353 23.1891C25.3353 20.5143 26.7024 18.1514 28.7747 16.7621ZM5.99367 23.1891C5.99367 27.4521 9.46325 30.9227 13.7315 30.9227C17.9968 30.9227 21.4693 27.4521 21.4693 23.1891C21.4693 18.9261 17.9968 15.4556 13.7315 15.4556C9.46614 15.4556 5.99367 18.9261 5.99367 23.1891ZM27.0918 31.8309C25.3498 31.3595 23.9232 29.8498 23.4776 28.0046H23.33C22.8843 29.8498 21.4577 31.3595 19.7157 31.8309V31.987C21.4606 32.4585 22.8843 33.9682 23.33 35.8133H23.4776C23.9232 33.9682 25.3498 32.4585 27.0918 31.987V31.8309Z" fill="#331C4D"/>
<path d="M65.9694 12.4122L55.3354 44.0354H61.4245L63.9235 35.9718H75.1931L77.7383 44.0354H83.9638L73.4199 12.4122H65.9669H65.9694ZM65.3775 30.851L69.4231 17.8487H69.6496L73.739 30.851H65.3775Z" fill="#331C4D"/>
<path d="M92.557 12.4122H86.7407V38.327C86.7407 40.1383 87.2108 41.5442 88.1485 42.5397C89.0862 43.5352 90.5573 44.0354 92.557 44.0354H95.6916V39.3686H92.557V12.4122Z" fill="#331C4D"/>
<path d="M117.688 23.3745C116.809 22.2867 115.688 21.4272 114.324 20.791C112.96 20.1573 111.355 19.8392 109.507 19.8392C107.78 19.8392 106.233 20.133 104.872 20.723C103.51 21.3131 102.356 22.1435 101.418 23.2142C100.478 24.2874 99.7592 25.5792 99.2599 27.087C98.7606 28.5973 98.5098 30.2896 98.5098 32.1617C98.5098 34.0337 98.7679 35.7795 99.2819 37.3043C99.7958 38.8291 100.531 40.1282 101.486 41.2014C102.441 42.2746 103.605 43.105 104.986 43.6926C106.365 44.2826 107.933 44.5764 109.689 44.5764C111.901 44.5764 113.847 44.1903 115.53 43.4182C117.21 42.6461 118.535 41.5777 119.507 40.2156L116.373 36.7167C115.644 37.6467 114.819 38.4115 113.896 39.0112C112.97 39.611 111.781 39.9096 110.327 39.9096C108.418 39.9096 106.978 39.3924 106.009 38.3581C105.04 37.3237 104.555 35.9519 104.555 34.2425V33.6574H120.326V31.7537C120.326 30.1221 120.106 28.59 119.666 27.155C119.227 25.72 118.567 24.4598 117.688 23.3721V23.3745ZM114.28 30.0808H104.555V29.719C104.555 28.0874 105.01 26.7592 105.919 25.7321C106.827 24.7051 108.055 24.1927 109.599 24.1927C111.143 24.1927 112.273 24.6978 113.075 25.7103C113.876 26.7228 114.278 28.0437 114.278 29.6753V30.0832L114.28 30.0808Z" fill="#331C4D"/>
<path d="M134.782 20.7939C134.071 21.0658 133.457 21.4276 132.94 21.8816C132.424 22.3357 132.01 22.8553 131.691 23.4453C131.372 24.0353 131.138 24.6448 130.987 25.2809H130.761V20.3884H124.944V44.0378H130.761V29.5398C130.761 28.2407 131.26 27.3059 132.261 26.7305C133.26 26.1575 134.745 25.8685 136.716 25.8685H138.533V20.3859H137.261C136.321 20.3859 135.495 20.5219 134.784 20.7939H134.782Z" fill="#331C4D"/>
<path d="M179.968 21.3158C179.315 19.3369 178.392 17.6907 177.196 16.3771C175.998 15.0635 174.561 14.0753 172.88 13.41C171.2 12.7471 169.327 12.4145 167.268 12.4145H155.726V44.0376H167.268C169.329 44.0376 171.2 43.705 172.88 43.0421C174.561 42.3793 176 41.3886 177.196 40.075C178.392 38.7614 179.318 37.1152 179.968 35.1363C180.618 33.1575 180.945 30.8556 180.945 28.2285C180.945 25.6013 180.618 23.2971 179.968 21.3206V21.3158ZM174.583 30.7148C174.583 33.4318 173.923 35.4496 172.605 36.7631C171.287 38.0767 169.507 38.7347 167.266 38.7347H161.723V17.7125H167.266C169.507 17.7125 171.287 18.3705 172.605 19.6841C173.923 20.9977 174.583 23.013 174.583 25.7324V30.7172V30.7148Z" fill="#331C4D"/>
<path d="M147.726 19.7741C147.407 19.3662 147.249 18.7543 147.249 17.9385V12.4122H141.433V38.0235C141.433 39.9538 141.956 41.4373 143.001 42.4765C144.046 43.5158 145.568 44.0354 147.568 44.0354H151.75V39.3686H147.251V25.0527H152.115V20.386H149.524C148.645 20.386 148.048 20.182 147.729 19.7741H147.726Z" fill="#331C4D"/>
</svg>
