<svg xmlns:xlink="http://www.w3.org/1999/xlink" xmlns="http://www.w3.org/2000/svg" fill="none" width="139" viewBox="0 0 139 45" height="45">
  <path fill="#00B6B8" d="m20.6983 3.44324.8968 7.38846c-.6983.0869-1.3844.2314-2.0435.4322L17.361 4.15343c.9863-.30612 2.3425-.59509 3.3373-.71019ZM3.914 18.5531c.22788-1.0052.65546-2.324 1.05364-3.2436l6.84866 2.9167c-.2696.638-.4864 1.3065-.6445 1.9861L3.914 18.5531Zm5.75579 18.8397L14.737 31.939c-.5133-.48-.9838-1.0004-1.4003-1.549l-5.95183 4.4693c.59665.8021 1.52532 1.8318 2.28492 2.5335Zm15.86291 5.1476-.8968-7.3897c.6984-.0869 1.3845-.2314 2.0436-.431l2.1906 7.1105c-.9851.3061-2.3413.5951-3.3374.7102Zm15.7318-11.8675c.3981-.9196.8257-2.2383 1.0536-3.2436l-7.2566-1.6592c-.1581.6808-.3761 1.3482-.6457 1.9861l6.8487 2.9167Zm-9.7686-16.6282 5.0673-5.45381c.7571.69917 1.6846 1.72891 2.2849 2.53461l-5.9518 4.4681c-.4166-.5486-.887-1.069-1.4004-1.5489Z"/>
  <path fill="#00BABA" d="m20.6983 3.44324.8968 7.38846c-.6983.0869-1.3844.2314-2.0435.4322L17.361 4.15343c.9863-.30612 2.3425-.59509 3.3373-.71019ZM3.914 18.5531c.22788-1.0052.65546-2.324 1.05364-3.2436l6.84866 2.9167c-.2696.638-.4864 1.3065-.6445 1.9861L3.914 18.5531Zm5.75579 18.8397L14.737 31.939c-.5133-.48-.9838-1.0004-1.4003-1.549l-5.95183 4.4693c.59665.8021 1.52532 1.8318 2.28492 2.5335Zm15.86291 5.1476-.8968-7.3897c.6984-.0869 1.3845-.2314 2.0436-.431l2.1906 7.1105c-.9851.3061-2.3413.5951-3.3374.7102Zm15.7318-11.8675c.3981-.9196.8257-2.2383 1.0536-3.2436l-7.2566-1.6592c-.1581.6808-.3761 1.3482-.6457 1.9861l6.8487 2.9167Zm-9.7686-16.6282 5.0673-5.45381c.7571.69917 1.6846 1.72891 2.2849 2.53461l-5.9518 4.4681c-.4166-.5486-.887-1.069-1.4004-1.5489Z"/>
  <path fill="#8DD906" d="m27.5685 8.35816-.892 2.90074c-.6579-.1996-1.3452-.3441-2.0435-.431l.838-6.94148.2205-1.72895c1.1921.14571 2.3756.39428 3.5199.7408l-1.6429 5.45989ZM14.732 14.0458c-.5023.4702-.9716.993-1.3955 1.5526l-5.59405-4.1962-1.39055-1.0568c.72039-.95259 1.52899-1.85012 2.40621-2.67173l3.93279 4.17783 2.0411 2.1943ZM5.41665 30.4904l-1.64416.6893c-.46924-1.1044-.84414-2.2542-1.1149-3.4187l5.58794-1.3163 2.92687-.671c.1605.6882.3762 1.3555.642 1.9873l-6.39775 2.7294Zm14.13825 4.233-.9053 2.9436-1.6295 5.4158c1.1443.3465 2.3278.5951 3.5199.7408l.2303-1.8135.8282-6.857c-.6996-.0857-1.3869-.2302-2.0436-.4297Zm11.9441-2.7857c.5035-.4714.9715-.9931 1.3955-1.5526l5.5597 4.1693 1.4249 1.0824c-.7204.9526-1.5302 1.8514-2.4062 2.6718l-3.8936-4.1338-2.0803-2.2371Zm10.9607-17.1352-1.643.6893-6.399 2.7294c.2671.6318.4828 1.3004.642 1.9873l3.0151-.6906 5.501-1.2967c-.2732-1.1645-.6481-2.3143-1.1161-3.4187Z"/>
  <path fill="#0183D9" d="M11.9633 2.87871c1.1652-.64529 2.394-1.19263 3.6522-1.62486L18.23 8.87737c-.8147.28285-1.5976.63427-2.3413 1.04692l-3.9254-7.04558ZM.115723 22.5889c.022052-1.3371.160495-2.6742.411652-3.9746l7.943915 1.5551c-.15805.8265-.24626 1.6763-.26096 2.5444l-8.094607-.1249ZM8.03391 40.3474c1.00953.8754 2.09629 1.6665 3.23319 2.3497l4.1606-6.9513c-.7326-.442-1.4248-.9453-2.068-1.5024l-5.32579 6.104Zm26.23549 2.755c-1.1651.6465-2.394 1.1939-3.6522 1.6261l-2.6279-7.6639c.8122-.2804 1.5927-.6294 2.3351-1.0408l3.945 7.0786ZM45.7041 27.368c.2511-1.3004.3908-2.6375.4116-3.9746l-8.0958-.1249c-.0172.8681-.109 1.7179-.2683 2.5432l7.9525 1.5563ZM34.9636 3.28525c1.1369.68325 2.2237 1.47426 3.2332 2.34975l-5.3037 6.0795c-.6444-.5608-1.3367-1.0665-2.0705-1.511l4.141-6.91825Z"/>
  <path fill="#00A8F2" d="M11.257 3.28769c-1.1418.68693-2.22851 1.47793-3.23192 2.35098l5.30862 6.07823c.6432-.5608 1.3366-1.0665 2.0693-1.511l-4.146-6.91821ZM.116699 23.4044c.012252.6747.053907 1.3445.121291 1.991.068608.649.167846 1.3151.296488 1.9824l7.945142-1.5599c-.15928-.8253-.25116-1.6751-.26831-2.5433l-8.094611.1298ZM11.9721 43.1049c1.1639.6453 2.3915 1.1926 3.6522 1.6273l2.623-7.6651c-.8122-.2804-1.5939-.6294-2.3363-1.0408l-3.9389 7.0786Zm23.0024-.4102c1.1418-.6869 2.2286-1.478 3.2332-2.3522l-5.3307-6.104c-.6432.5584-1.3354 1.0616-2.068 1.5037l4.1655 6.9525Zm11.1392-20.1156c-.0123-.6746-.0539-1.3444-.1213-1.9909-.0686-.649-.1678-1.3151-.2965-1.9825l-7.9365 1.5588c.1568.8265.2462 1.6763.2609 2.5444l8.0934-.1298ZM30.4017 9.80919l3.858-6.93169c-1.1639-.6453-2.3927-1.19263-3.6522-1.62732l-2.6096 7.62597c.8147.28163 1.5976.63305 2.3413 1.0457l.0625-.11266Z"/>
  <path fill="#00A1DF" d="m34.2597 2.8775-3.858 6.93169-.0625.11266c-.7437-.41265-1.5266-.76407-2.3413-1.0457l2.6096-7.62597c1.2595.43469 2.4883.98202 3.6522 1.62732ZM8.02508 5.63867c1.00341-.87305 2.09012-1.66405 3.23192-2.35098l4.146 6.91821c-.7327.4445-1.4261.9502-2.0693 1.511L8.02508 5.63867ZM.23799 25.3954c-.067384-.6465-.109039-1.3163-.121291-1.991l8.094611-.1298c.01715.8682.10903 1.718.26831 2.5433L.534478 27.3778c-.128642-.6673-.22788-1.3334-.296488-1.9824ZM11.9721 43.1049c1.1639.6453 2.3915 1.1926 3.6522 1.6273l2.623-7.6651c-.8122-.2804-1.5939-.6294-2.3363-1.0408l-3.9389 7.0786Zm26.2356-2.7624c-1.0046.8742-2.0913 1.6653-3.2332 2.3522l-4.1655-6.9525c.7326-.4421 1.4248-.9453 2.068-1.5037l5.3307 6.104Zm7.906-17.7634c-.0123-.6746-.0539-1.3444-.1213-1.9909-.0686-.649-.1678-1.3151-.2965-1.9825l-7.9365 1.5588c.1568.8265.2462 1.6763.2609 2.5444l8.0934-.1298Z"/>
  <path fill="#00C000" d="m24.3961 8.1152.7143-8.0306795C24.4611.0293985 23.8007 0 23.1477 0c-.6751 0-1.3587.0306235-2.035.0894204l.718 8.0245496c.4239-.03675.8527-.05634 1.2851-.05634.4313.00245.8577.02204 1.2803.05757Zm17.5652 1.69288c.7682 1.09512 1.4421 2.25882 2.0032 3.46042l-7.3338 3.4066c-.3639-.7791-.7927-1.5214-1.2791-2.2196l6.6097-4.64742ZM2.26709 13.2795c.56357-1.2065 1.23741-2.3702 2.00068-3.46042l6.60973 4.64132c-.4864.6982-.9152 1.4405-1.27785 2.2195l-7.33256-3.4004Zm2.0041 22.9137c-.76817-1.0951-1.44201-2.2588-2.00313-3.4604l7.35217-3.4139c.36387.7766.79387 1.5165 1.28147 2.2122l-6.63051 4.6621Zm37.69341-.0111c.7633-1.0902 1.4371-2.2538 2.0007-3.4604l-7.3497-3.409c-.3651.7766-.7939 1.5165-1.2815 2.2135l6.6305 4.6559Zm-20.8424 9.7297.718-8.0711c.4202.0355.8453.0551 1.2766.0551.4313 0 .8588-.0196 1.2815-.0551l.7241 8.0723c-.6726.0576-1.3428.087-1.9946.087-.6554 0-1.3293-.0294-2.0056-.0882Z"/>
  <path fill="#1C426E" d="M71.4334 22.4826c1.9221.5648 3.5905 2.1462 3.5905 4.7723 0 3.052-2.1769 5.7631-7.0948 5.7631h-8.5072V13.2455h8.5355c3.561 0 6.0187 2.4022 6.0187 5.1416 0 2.2028-1.469 3.586-2.5439 3.9823l.0012.1132Zm-4.381-1.4128c1.299 0 2.1474-.7913 2.1474-1.9493 0-1.1014-.8188-1.9493-2.1758-1.9493h-2.8554v3.8986h2.8838Zm.4519 8.0212c1.6388 0 2.5155-.9315 2.5155-2.2594 0-1.4115-.9616-2.2606-2.5155-2.2606h-3.3357v4.52h3.3357Zm19.4975 3.9254h-4.748v-7.7948L74.877 13.2439h5.483l3.0512 5.3668c.7068 1.2441 1.3003 2.3172 1.3286 2.3443h.085c.0283-.0283.6218-1.1297 1.3286-2.3443l3.1645-5.3668h5.0595l-7.3756 11.9777v7.7948Zm24.4702-4.8303c0-4.6886.057-7.0047.057-7.033h-.057c-.027.0283-.99 1.8078-1.949 3.5011l-1.924 3.4741h-2.656l-1.922-3.4162c-.988-1.7524-1.922-3.5319-1.949-3.5602h-.085c0 .0283.057 2.3443.057 7.033v4.829h-4.7481V13.2451h5.0301l4.974 8.8408h.085l5.002-8.8408h4.833v19.7712h-4.748v-4.8302Zm12.882 1.5543-1.187 3.276h-5.003l7.632-19.7725h5.397l7.66 19.7725h-5.088l-1.188-3.276h-8.223Zm5.256-8.2476c-.62-1.6392-1.073-2.8809-1.102-2.9104h-.085c-.028.0295-.48 1.2441-1.102 2.8821l-1.412 3.954h5.114l-1.413-3.9257Z"/>
</svg>