<svg width="430" height="96" viewBox="0 0 430 96" fill="none" xmlns="http://www.w3.org/2000/svg">
<path d="M26.0335 44.7762H0C0 20.047 20.5972 -2.15597e-06 46.005 -2.15597e-06V25.3382C46.005 36.0733 37.0633 44.7762 26.0335 44.7762Z" fill="#C2EDF5" style="fill:#C2EDF5;fill:color(display-p3 0.7608 0.9294 0.9608);fill-opacity:1;"/>
<path d="M46.0051 96H0.000106812V51.2238H26.9016C37.4528 51.2238 46.0051 59.5477 46.0051 69.8171V96Z" fill="#C2EDF5" style="fill:#C2EDF5;fill:color(display-p3 0.7608 0.9294 0.9608);fill-opacity:1;"/>
<path d="M98.777 44.7762H72.7434C61.7131 44.7762 52.7714 36.0733 52.7714 25.3382V-2.15597e-06H98.777V44.7762Z" fill="#57CCD6" style="fill:#57CCD6;fill:color(display-p3 0.3412 0.8000 0.8392);fill-opacity:1;"/>
<path d="M52.7712 96V70.6618C52.7712 59.9267 61.7129 51.2238 72.7432 51.2238H98.7768C98.7768 75.953 78.179 96 52.7712 96Z" fill="#C2EDF5" style="fill:#C2EDF5;fill:color(display-p3 0.7608 0.9294 0.9608);fill-opacity:1;"/>
<path d="M407.626 70.4563C403.526 70.4563 400.712 68.659 400.712 65.1439C400.712 62.877 402.321 60.4546 406.983 59.5958L419.042 57.486V60.1427C419.042 65.9242 414.138 70.4563 407.626 70.4563ZM406.34 78.1922C411.726 78.1922 416.309 76.3163 419.606 72.5667V77.2537H429.333V48.6561C429.333 39.5924 421.615 33.42 410.843 33.42C401.838 33.42 394.281 37.9521 391.708 44.6715L400.632 48.8912C402.16 44.906 406.018 42.3272 410.762 42.3272C415.585 42.3272 419.042 44.8269 419.042 48.6561V50.0631L405.536 52.3289C395.245 53.9703 390.019 59.2048 390.019 65.5338C390.019 72.7227 396.452 78.1922 406.34 78.1922V78.1922ZM370.673 77.2537V53.2663C370.673 46.6254 375.014 42.7967 381.445 42.7967H386.992V33.889H382.651C376.943 33.889 372.44 35.6858 370.028 40.6084V34.3579H360.381V77.2537H370.673ZM329.51 70.4563C325.409 70.4563 322.595 68.659 322.595 65.1439C322.595 62.877 324.204 60.4546 328.866 59.5958L340.926 57.486V60.1427C340.926 65.9242 336.021 70.4563 329.51 70.4563ZM328.224 78.1922C333.61 78.1922 338.192 76.3163 341.488 72.5667V77.2537H351.217V48.6561C351.217 39.5924 343.498 33.42 332.725 33.42C323.721 33.42 316.163 37.9521 313.59 44.6715L322.514 48.8912C324.041 44.906 327.901 42.3272 332.644 42.3272C337.469 42.3272 340.926 44.8269 340.926 48.6561V50.0631L327.418 52.3289C317.128 53.9703 311.902 59.2048 311.902 65.5338C311.902 72.7227 318.334 78.1922 328.224 78.1922V78.1922ZM280.467 69.05C272.99 69.05 267.523 63.5804 267.523 55.9231C267.523 48.2651 272.99 42.7188 280.467 42.7188C287.864 42.7188 293.25 48.1872 293.25 55.9231C293.25 63.6584 287.864 69.05 280.467 69.05V69.05ZM279.341 78.1922C285.13 78.1922 290.597 76.1604 293.894 72.4888V77.2537H303.541V18.1832H293.25V38.9681C290.115 35.5298 285.05 33.4979 279.341 33.4979C266.559 33.4979 256.831 43.3431 256.831 55.9231C256.831 68.503 266.559 78.1922 279.341 78.1922V78.1922ZM240.752 51.079H218.883C220.089 45.0625 224.512 41.6243 230.14 41.6243C235.686 41.6243 240.349 45.5315 240.752 51.079V51.079ZM230.863 78.1922C240.028 78.1922 247.263 73.8166 249.997 67.6436L241.636 63.6584C239.625 67.0966 236.009 69.4404 230.943 69.4404C224.27 69.4404 219.285 65.2218 218.643 58.6573H251.202C251.605 57.486 251.766 55.8451 251.766 54.3602C251.766 42.8747 242.681 33.42 230.14 33.42C217.597 33.42 207.949 42.9527 207.949 55.7666C207.949 68.2685 217.277 78.1922 230.863 78.1922V78.1922ZM199.589 18.1053H189.298V77.2537H199.589V18.1053ZM154.567 78.1922C167.43 78.1922 176.997 71.1598 180.133 62.9555L170.565 58.4233C168.153 64.5178 162.445 68.7381 154.567 68.7381C143.07 68.7381 135.111 60.3767 135.111 48.1092C135.111 35.9197 143.07 27.5594 154.567 27.5594C162.445 27.5594 168.153 31.8571 170.565 37.8736L180.133 33.3414C177.077 25.2157 167.51 18.1053 154.567 18.1053C137.201 18.1053 124.338 30.7632 124.338 48.1092C124.338 65.4558 137.281 78.1922 154.567 78.1922" fill="black" style="fill:black;fill-opacity:1;"/>
</svg>
