<svg width="152" height="32" viewBox="0 0 152 32" fill="none" xmlns="http://www.w3.org/2000/svg">
<path fill-rule="evenodd" clip-rule="evenodd" d="M10.1053 0C4.52428 0 0 4.52428 0 10.1053V21.8947C0 27.4757 4.52428 32 10.1053 32H21.8947C27.4757 32 32 27.4757 32 21.8947V10.1053C32 4.52428 27.4757 0 21.8947 0H10.1053ZM11.036 2.52632C6.33624 2.52632 2.52632 6.33623 2.52632 11.036V20.964C2.52632 25.6638 6.33624 29.4737 11.036 29.4737H20.964C25.6638 29.4737 29.4737 25.6638 29.4737 20.964V11.036C29.4737 6.33624 25.6638 2.52632 20.964 2.52632H11.036Z" fill="url(#paint0_linear_8226_278)"/>
<path fill-rule="evenodd" clip-rule="evenodd" d="M5.29735 4.10643L8.85451 7.6636C12.8009 11.6099 19.1992 11.6099 23.1455 7.6636L26.7027 4.10642C27.1201 4.48232 27.5177 4.87988 27.8936 5.29734L24.3364 8.85451C20.3901 12.8009 20.3901 19.1992 24.3364 23.1455L27.8936 26.7027C27.5177 27.1201 27.1201 27.5177 26.7027 27.8936L23.1455 24.3364C19.1992 20.3901 12.8009 20.3901 8.85451 24.3364L5.29736 27.8936C4.8799 27.5177 4.48234 27.1201 4.10644 26.7027L7.6636 23.1455C11.6099 19.1992 11.6099 12.8009 7.6636 8.85451L4.10643 5.29735C4.48233 4.87989 4.87989 4.48233 5.29735 4.10643Z" fill="url(#paint1_radial_8226_278)"/>
<path d="M139.802 29.1051L139.618 25.6448V19.6444C139.618 18.3928 139.483 17.3498 139.213 16.5154C138.967 15.6565 138.55 15.0061 137.961 14.5644C137.397 14.0981 136.636 13.8649 135.679 13.8649C134.795 13.8649 134.022 14.049 133.36 14.4171C132.697 14.7852 132.133 15.362 131.666 16.1473L128.059 14.822C128.451 14.0122 128.967 13.2637 129.605 12.5765C130.267 11.8648 131.09 11.3004 132.071 10.8832C133.077 10.466 134.28 10.2574 135.679 10.2574C137.47 10.2574 138.967 10.6132 140.17 11.3249C141.372 12.0121 142.256 13.006 142.82 14.3067C143.409 15.6074 143.704 17.178 143.704 19.0186L143.593 29.1051H139.802ZM134.501 29.5469C132.292 29.5469 130.574 29.056 129.347 28.0744C128.145 27.0927 127.543 25.7061 127.543 23.9146C127.543 22.0004 128.181 20.5402 129.458 19.534C130.758 18.5278 132.562 18.0247 134.869 18.0247H139.802V21.1905H136.194C134.55 21.1905 133.396 21.4237 132.734 21.89C132.071 22.3317 131.74 22.9698 131.74 23.8042C131.74 24.5159 132.022 25.0803 132.587 25.4975C133.176 25.8902 133.985 26.0865 135.016 26.0865C135.949 26.0865 136.759 25.8779 137.446 25.4607C138.133 25.0435 138.661 24.4913 139.029 23.8042C139.421 23.117 139.618 22.344 139.618 21.485H140.832C140.832 23.9882 140.329 25.9638 139.323 27.4118C138.317 28.8352 136.71 29.5469 134.501 29.5469Z" fill="url(#paint2_linear_8226_278)"/>
<path d="M146.655 29.1051V10.6991H150.741V29.1051H146.655ZM148.716 7.20195C148.054 7.20195 147.477 6.96881 146.986 6.50252C146.52 6.0117 146.287 5.43498 146.287 4.77236C146.287 4.10974 146.52 3.54529 146.986 3.07901C147.477 2.61272 148.054 2.37958 148.716 2.37958C149.379 2.37958 149.943 2.61272 150.41 3.07901C150.901 3.54529 151.146 4.10974 151.146 4.77236C151.146 5.43498 150.901 6.0117 150.41 6.50252C149.943 6.96881 149.379 7.20195 148.716 7.20195Z" fill="url(#paint3_linear_8226_278)"/>
<path d="M122.926 29.6205C122.215 29.6205 121.601 29.3751 121.086 28.8842C120.595 28.3689 120.349 27.7553 120.349 27.0436C120.349 26.3319 120.595 25.7184 121.086 25.203C121.601 24.6877 122.215 24.43 122.926 24.43C123.638 24.43 124.252 24.6877 124.767 25.203C125.282 25.7184 125.54 26.3319 125.54 27.0436C125.54 27.7553 125.282 28.3689 124.767 28.8842C124.252 29.3751 123.638 29.6205 122.926 29.6205Z" fill="url(#paint4_linear_8226_278)"/>
<path d="M109.805 29.1051L115.953 10.6991H120.113L113.855 29.1051H109.805ZM97.4734 29.1051L103.474 10.6991H107.118L101.191 29.1051H97.4734ZM97.1052 29.1051L90.8472 10.6991H95.007L101.007 29.1051H97.1052ZM109.769 29.1051L103.879 10.6991H107.523L113.523 29.1051H109.769Z" fill="url(#paint5_linear_8226_278)"/>
<path d="M82.362 29.5469C80.5214 29.5469 78.8771 29.1419 77.4292 28.3321C76.0058 27.4977 74.8892 26.3565 74.0793 24.9085C73.2694 23.4606 72.8645 21.7918 72.8645 19.9021C72.8645 18.0124 73.2572 16.3436 74.0425 14.8957C74.8524 13.4477 75.969 12.3188 77.3924 11.509C78.8158 10.6746 80.4478 10.2574 82.2884 10.2574C84.129 10.2574 85.761 10.6746 87.1844 11.509C88.6078 12.3188 89.7122 13.4477 90.4975 14.8957C91.3073 16.3436 91.7123 18.0124 91.7123 19.9021C91.7123 21.7918 91.3196 23.4606 90.5343 24.9085C89.749 26.3565 88.6446 27.4977 87.2212 28.3321C85.7978 29.1419 84.1781 29.5469 82.362 29.5469ZM82.362 25.7552C83.3682 25.7552 84.264 25.5098 85.0493 25.019C85.8346 24.5036 86.4482 23.8165 86.8899 22.9575C87.3316 22.074 87.5525 21.0556 87.5525 19.9021C87.5525 18.7487 87.3194 17.7425 86.8531 16.8835C86.4113 16 85.7978 15.3129 85.0125 14.822C84.2272 14.3067 83.3191 14.049 82.2884 14.049C81.2577 14.049 80.3496 14.2944 79.5643 14.7852C78.779 15.2761 78.1655 15.9632 77.7237 16.8467C77.282 17.7302 77.0611 18.7487 77.0611 19.9021C77.0611 21.0556 77.282 22.074 77.7237 22.9575C78.19 23.8165 78.8158 24.5036 79.6011 25.019C80.411 25.5098 81.3313 25.7552 82.362 25.7552Z" fill="url(#paint6_linear_8226_278)"/>
<path d="M67.0361 29.1051V3.33669H71.1591V29.1051H67.0361Z" fill="url(#paint7_linear_8226_278)"/>
<path d="M53.8575 29.5469C51.2561 29.5469 48.9369 28.9824 46.9 27.8535C44.8876 26.7001 43.3047 25.1294 42.1512 23.1416C40.9978 21.1292 40.4211 18.8346 40.4211 16.2577C40.4211 13.6318 40.9978 11.3249 42.1512 9.33705C43.3047 7.32466 44.8876 5.75401 46.9 4.62511C48.9369 3.47167 51.2561 2.89495 53.8575 2.89495C55.3545 2.89495 56.7533 3.12809 58.054 3.59438C59.3793 4.06066 60.5695 4.69874 61.6248 5.5086C62.6801 6.29392 63.539 7.21422 64.2016 8.2695L60.7413 10.4782C60.275 9.76653 59.6738 9.12845 58.9375 8.564C58.2013 7.99955 57.3914 7.57007 56.5079 7.27558C55.649 6.95654 54.7655 6.79702 53.8575 6.79702C52.0905 6.79702 50.5198 7.20195 49.1455 8.01182C47.7957 8.82168 46.7282 9.93831 45.9429 11.3617C45.1575 12.7606 44.7649 14.3926 44.7649 16.2577C44.7649 18.0738 45.1453 19.6935 45.9061 21.1169C46.6914 22.5403 47.7712 23.6569 49.1455 24.4668C50.5444 25.2767 52.1518 25.6816 53.9679 25.6816C55.3913 25.6816 56.6674 25.3871 57.7963 24.7981C58.9252 24.2091 59.8087 23.387 60.4468 22.3317C61.1094 21.2764 61.4407 20.0616 61.4407 18.6873L65.5269 18.1719C65.5269 20.5034 65.0238 22.528 64.0176 24.2459C63.0359 25.9393 61.6616 27.2522 59.8946 28.1848C58.1522 29.0928 56.1398 29.5469 53.8575 29.5469ZM55.2563 19.0186V15.5583H65.5269V18.4296L63.2445 19.0186H55.2563Z" fill="url(#paint8_linear_8226_278)"/>
<defs>
<linearGradient id="paint0_linear_8226_278" x1="0" y1="0" x2="32" y2="32" gradientUnits="userSpaceOnUse">
<stop offset="0.33" style="stop-color:black;stop-opacity:1;"/>
<stop offset="0.659692" stop-color="#666666" style="stop-color:#666666;stop-color:color(display-p3 0.4000 0.4000 0.4000);stop-opacity:1;"/>
</linearGradient>
<radialGradient id="paint1_radial_8226_278" cx="0" cy="0" r="1" gradientUnits="userSpaceOnUse" gradientTransform="translate(16 16) rotate(90) scale(17.6842)">
<stop style="stop-color:black;stop-opacity:1;"/>
<stop offset="0.8" stop-opacity="0" style="stop-color:none;stop-opacity:0;"/>
</radialGradient>
<linearGradient id="paint2_linear_8226_278" x1="127.543" y1="10.2574" x2="146.535" y2="26.168" gradientUnits="userSpaceOnUse">
<stop offset="0.33" style="stop-color:black;stop-opacity:1;"/>
<stop offset="0.659692" stop-color="#666666" style="stop-color:#666666;stop-color:color(display-p3 0.4000 0.4000 0.4000);stop-opacity:1;"/>
</linearGradient>
<linearGradient id="paint3_linear_8226_278" x1="146.287" y1="2.37958" x2="155.694" y2="4.09001" gradientUnits="userSpaceOnUse">
<stop offset="0.33" style="stop-color:black;stop-opacity:1;"/>
<stop offset="0.659692" stop-color="#666666" style="stop-color:#666666;stop-color:color(display-p3 0.4000 0.4000 0.4000);stop-opacity:1;"/>
</linearGradient>
<linearGradient id="paint4_linear_8226_278" x1="120.349" y1="24.43" x2="125.54" y2="29.6205" gradientUnits="userSpaceOnUse">
<stop offset="0.33" style="stop-color:black;stop-opacity:1;"/>
<stop offset="0.659692" stop-color="#666666" style="stop-color:#666666;stop-color:color(display-p3 0.4000 0.4000 0.4000);stop-opacity:1;"/>
</linearGradient>
<linearGradient id="paint5_linear_8226_278" x1="90.8472" y1="10.6991" x2="107.437" y2="37.0772" gradientUnits="userSpaceOnUse">
<stop offset="0.33" style="stop-color:black;stop-opacity:1;"/>
<stop offset="0.659692" stop-color="#666666" style="stop-color:#666666;stop-color:color(display-p3 0.4000 0.4000 0.4000);stop-opacity:1;"/>
</linearGradient>
<linearGradient id="paint6_linear_8226_278" x1="72.8645" y1="10.2574" x2="92.1488" y2="29.1001" gradientUnits="userSpaceOnUse">
<stop offset="0.33" style="stop-color:black;stop-opacity:1;"/>
<stop offset="0.659692" stop-color="#666666" style="stop-color:#666666;stop-color:color(display-p3 0.4000 0.4000 0.4000);stop-opacity:1;"/>
</linearGradient>
<linearGradient id="paint7_linear_8226_278" x1="67.0361" y1="3.33669" x2="75.0762" y2="4.6231" gradientUnits="userSpaceOnUse">
<stop offset="0.33" style="stop-color:black;stop-opacity:1;"/>
<stop offset="0.659692" stop-color="#666666" style="stop-color:#666666;stop-color:color(display-p3 0.4000 0.4000 0.4000);stop-opacity:1;"/>
</linearGradient>
<linearGradient id="paint8_linear_8226_278" x1="40.4211" y1="2.89495" x2="67.0255" y2="27.956" gradientUnits="userSpaceOnUse">
<stop offset="0.33" style="stop-color:black;stop-opacity:1;"/>
<stop offset="0.659692" stop-color="#666666" style="stop-color:#666666;stop-color:color(display-p3 0.4000 0.4000 0.4000);stop-opacity:1;"/>
</linearGradient>
</defs>
</svg>
