<svg width="103" height="24" viewBox="0 0 103 24" fill="none" xmlns="http://www.w3.org/2000/svg">
<mask id="mask0_1_12" style="mask-type:luminance" maskUnits="userSpaceOnUse" x="0" y="0" width="103" height="24">
<path d="M102.75 0H0V24H102.75V0Z" fill="white" style="fill:white;fill-opacity:1;"/>
</mask>
<g mask="url(#mask0_1_12)">
<path d="M2.32559 16.6821C1.0824 16.6821 0.0695901 15.6924 0.00656128 14.4494V21.394C0.00656128 22.692 1.04545 23.7433 2.32559 23.7433C3.60681 23.7433 4.64461 22.6909 4.64461 21.394V14.4483C4.58158 15.6924 3.56878 16.6821 2.32559 16.6821Z" fill="#008859" style="fill:#008859;fill:color(display-p3 0.0000 0.5333 0.3490);fill-opacity:1;"/>
<path d="M2.32555 16.6822C3.60991 16.6822 4.65109 15.6274 4.65109 14.3262C4.65109 13.0251 3.60991 11.9702 2.32555 11.9702C1.04118 11.9702 0 13.0251 0 14.3262C0 15.6274 1.04118 16.6822 2.32555 16.6822Z" fill="#008859" style="fill:#008859;fill:color(display-p3 0.0000 0.5333 0.3490);fill-opacity:1;"/>
<path d="M22.2673 4.93231C20.9828 4.93231 19.9417 3.87763 19.9417 2.57634C19.9417 2.10625 20.0786 1.66919 20.3134 1.30148L12.2967 12.6453L14.0855 15.1775C14.4202 15.5859 14.6223 16.1099 14.6223 16.6824C14.6223 17.1316 14.4984 17.5521 14.2821 17.9099L19.9482 9.89303V21.2699C20.0113 20.0259 21.0241 19.0361 22.2673 19.0361C23.5104 19.0361 24.5232 20.0259 24.5863 21.2699V2.69855C24.5232 3.94259 23.5104 4.93231 22.2673 4.93231Z" fill="#008859" style="fill:#008859;fill:color(display-p3 0.0000 0.5333 0.3490);fill-opacity:1;"/>
<path d="M12.2962 14.3261C13.0167 14.3261 13.66 14.6575 14.086 15.1782L14.085 15.176L12.2962 12.6439L4.21225 1.20428C3.46569 0.149602 2.01711 -0.0937008 0.976053 0.661529C-0.0660977 1.41676 -0.305172 2.88538 0.440306 3.94006L10.3108 17.9085C10.3239 17.9305 10.338 17.9514 10.3521 17.9723C10.112 17.6013 9.9707 17.1587 9.9707 16.682C9.9707 15.3808 11.0128 14.3261 12.2962 14.3261Z" fill="#008859" style="fill:#008859;fill:color(display-p3 0.0000 0.5333 0.3490);fill-opacity:1;"/>
<path d="M22.268 4.93212C23.5524 4.93212 24.5935 3.87732 24.5935 2.57615C24.5935 1.27499 23.5524 0.220192 22.268 0.220192C20.9836 0.220192 19.9425 1.27499 19.9425 2.57615C19.9425 3.87732 20.9836 4.93212 22.268 4.93212Z" fill="#008859" style="fill:#008859;fill:color(display-p3 0.0000 0.5333 0.3490);fill-opacity:1;"/>
<path d="M22.268 23.7471C23.5524 23.7471 24.5935 22.6923 24.5935 21.3911C24.5935 20.0899 23.5524 19.0351 22.268 19.0351C20.9836 19.0351 19.9425 20.0899 19.9425 21.3911C19.9425 22.6923 20.9836 23.7471 22.268 23.7471Z" fill="#008859" style="fill:#008859;fill:color(display-p3 0.0000 0.5333 0.3490);fill-opacity:1;"/>
<path d="M12.2954 19.038C13.5797 19.038 14.621 17.9832 14.621 16.6821C14.621 15.381 13.5797 14.3262 12.2954 14.3262C11.0111 14.3262 9.96984 15.381 9.96984 16.6821C9.96984 17.9832 11.0111 19.038 12.2954 19.038Z" fill="#008859" style="fill:#008859;fill:color(display-p3 0.0000 0.5333 0.3490);fill-opacity:1;"/>
<path d="M72.8934 3.18616C70.7494 1.24745 67.8392 0.223595 64.4758 0.223595H57.5252C58.8065 0.223595 59.8443 1.27607 59.8443 2.57295C59.8443 3.87093 58.8054 4.92231 57.5252 4.92231H64.4758C66.6818 4.92231 68.5249 5.53442 69.805 6.69148C71.1515 7.90798 71.8339 9.69365 71.8339 11.9968C71.8339 14.2922 71.1503 16.0713 69.8006 17.2834C68.5184 18.435 66.6775 19.0438 64.4769 19.0438H59.8465V21.1444V21.1487C59.8541 21.2269 59.8584 21.3061 59.8584 21.3854C59.8584 22.6867 58.8173 23.7414 57.5329 23.7414H64.4769C67.8305 23.7414 70.7352 22.723 72.8793 20.7964C75.2306 18.6838 76.4733 15.6397 76.4733 11.9935C76.4718 8.34943 75.2351 5.30213 72.8934 3.18616Z" fill="#008859" style="fill:#008859;fill:color(display-p3 0.0000 0.5333 0.3490);fill-opacity:1;"/>
<path d="M59.846 21.1452V9.64065C59.846 8.3427 58.8071 7.29129 57.527 7.29129C56.2468 7.29129 55.208 8.34375 55.208 9.64065V21.3875C55.208 20.0861 56.249 19.0315 57.5335 19.0315C58.7365 19.0315 59.7265 19.9585 59.846 21.1452Z" fill="#008859" style="fill:#008859;fill:color(display-p3 0.0000 0.5333 0.3490);fill-opacity:1;"/>
<path d="M88.5878 21.6442C88.5878 20.343 89.6288 19.2883 90.9136 19.2883H90.9106C86.9438 19.2861 83.7173 16.0164 83.7173 11.9969C83.7173 10.0615 84.4681 8.22298 85.8308 6.82152C86.7301 5.89675 86.7188 4.40941 85.8061 3.49785C84.8933 2.58739 83.4248 2.5984 82.5256 3.52317C80.3033 5.80977 79.0786 8.81968 79.0786 11.9959C79.0786 18.5176 84.2446 23.8395 90.6496 23.9826C90.6526 23.9826 90.6563 23.9826 90.6608 23.9837C89.4953 23.8571 88.5878 22.8586 88.5878 21.6442Z" fill="#008859" style="fill:#008859;fill:color(display-p3 0.0000 0.5333 0.3490);fill-opacity:1;"/>
<path d="M90.9134 4.71193C92.1982 4.71193 93.2392 3.65713 93.2392 2.35596C93.2392 1.0548 92.1982 0 90.9134 0C89.6294 0 88.5877 1.0548 88.5877 2.35596C88.5877 3.65713 89.6294 4.71193 90.9134 4.71193Z" fill="#008859" style="fill:#008859;fill:color(display-p3 0.0000 0.5333 0.3490);fill-opacity:1;"/>
<path d="M57.5322 23.7437C58.8165 23.7437 59.8577 22.6889 59.8577 21.3877C59.8577 20.0865 58.8165 19.0317 57.5322 19.0317C56.2478 19.0317 55.2066 20.0865 55.2066 21.3877C55.2066 22.6889 56.2478 23.7437 57.5322 23.7437Z" fill="#008859" style="fill:#008859;fill:color(display-p3 0.0000 0.5333 0.3490);fill-opacity:1;"/>
<path d="M57.527 4.92231C58.8077 4.92231 59.846 3.87047 59.846 2.57295C59.846 1.27544 58.8077 0.223595 57.527 0.223595C56.2462 0.223595 55.208 1.27544 55.208 2.57295C55.208 3.87047 56.2462 4.92231 57.527 4.92231Z" fill="#008859" style="fill:#008859;fill:color(display-p3 0.0000 0.5333 0.3490);fill-opacity:1;"/>
<path d="M91.1358 0.0101929V0.0112938C92.3163 0.125789 93.2388 1.13093 93.2388 2.35625C93.2388 3.61019 92.2706 4.63294 91.0511 4.7056V4.70781C94.9556 4.78267 98.1101 8.0238 98.1101 11.997C98.1101 13.95 97.3631 15.782 96.0063 17.1559C94.6503 18.5298 92.8428 19.2862 90.9176 19.2872C92.2001 19.2895 93.2396 20.343 93.2396 21.6432C93.2396 22.8542 92.3381 23.8505 91.1786 23.9838C94.2461 23.9166 97.1171 22.6781 99.2876 20.4785C101.52 18.2161 102.75 15.2039 102.75 11.9959C102.75 5.46084 97.5603 0.130193 91.1358 0.0101929Z" fill="#008859" style="fill:#008859;fill:color(display-p3 0.0000 0.5333 0.3490);fill-opacity:1;"/>
<path d="M90.9134 23.9998C92.1982 23.9998 93.2392 22.945 93.2392 21.6439C93.2392 20.3427 92.1982 19.2879 90.9134 19.2879C89.6294 19.2879 88.5877 20.3427 88.5877 21.6439C88.5877 22.945 89.6294 23.9998 90.9134 23.9998Z" fill="#008859" style="fill:#008859;fill:color(display-p3 0.0000 0.5333 0.3490);fill-opacity:1;"/>
<path d="M37.7974 21.6442C37.7974 20.343 38.8385 19.2883 40.123 19.2883H40.1197C36.1532 19.2861 32.9268 16.0164 32.9268 11.9969C32.9268 10.0615 33.6778 8.22298 35.0404 6.82152C35.9392 5.89675 35.9283 4.40941 35.0155 3.49785C34.1026 2.58739 32.6345 2.5984 31.7347 3.52317C29.5124 5.80977 28.2877 8.81968 28.2877 11.9959C28.2877 18.5176 33.4539 23.8395 39.8589 23.9826C39.8622 23.9826 39.8654 23.9826 39.8698 23.9837C38.7037 23.8571 37.7974 22.8586 37.7974 21.6442Z" fill="#008859" style="fill:#008859;fill:color(display-p3 0.0000 0.5333 0.3490);fill-opacity:1;"/>
<path d="M40.1229 4.71193C41.4073 4.71193 42.4485 3.65713 42.4485 2.35596C42.4485 1.0548 41.4073 0 40.1229 0C38.8386 0 37.7974 1.0548 37.7974 2.35596C37.7974 3.65713 38.8386 4.71193 40.1229 4.71193Z" fill="#008859" style="fill:#008859;fill:color(display-p3 0.0000 0.5333 0.3490);fill-opacity:1;"/>
<path d="M40.3463 0.0101929V0.0112938C41.5264 0.124688 42.4491 1.13093 42.4491 2.35625C42.4491 3.61019 41.4808 4.63294 40.2615 4.7056V4.70781C44.166 4.78267 47.3208 8.0238 47.3208 11.997C47.3208 13.95 46.5731 15.782 45.2169 17.1559C43.8606 18.5298 42.0535 19.2862 40.1278 19.2872C41.4102 19.2895 42.4501 20.343 42.4501 21.6432C42.4501 22.8542 41.5482 23.8505 40.3887 23.9838C43.4564 23.9166 46.3275 22.6781 48.4977 20.4785C50.7308 18.2161 51.9609 15.2039 51.9609 11.9959C51.9599 5.46084 46.7698 0.130193 40.3463 0.0101929Z" fill="#008859" style="fill:#008859;fill:color(display-p3 0.0000 0.5333 0.3490);fill-opacity:1;"/>
<path d="M40.1229 23.9998C41.4073 23.9998 42.4485 22.945 42.4485 21.6439C42.4485 20.3427 41.4073 19.2879 40.1229 19.2879C38.8386 19.2879 37.7974 20.3427 37.7974 21.6439C37.7974 22.945 38.8386 23.9998 40.1229 23.9998Z" fill="#008859" style="fill:#008859;fill:color(display-p3 0.0000 0.5333 0.3490);fill-opacity:1;"/>
</g>
</svg>
