<svg width="213" height="60" viewBox="0 0 213 60" fill="none" xmlns="http://www.w3.org/2000/svg">
<path d="M36.4673 29.0358C42.6252 29.0358 45.928 33.6495 47.3648 37.4404C47.4704 37.7192 48.1441 37.6301 48.1442 37.332V29.9378C48.1442 29.6362 48.4162 29.4071 48.7115 29.4678C51.3373 30.0079 53.8392 31.1187 56.0288 32.7527C59.892 35.636 62.4707 39.915 63.2184 44.6715C63.2369 44.7896 63.21 44.9103 63.1436 45.0097C62.3921 46.1335 61.5372 47.265 60.5636 48.3937C52.171 58.1232 42.9409 59.88 37.4162 59.8801H15.7833C15.6491 59.8801 15.5448 59.7713 15.5448 59.6371V57.9479C15.5449 55.7334 18.8887 56.6138 20.6223 54.7136C22.3559 52.8132 24.2435 45.1889 24.5346 43.8306C24.8257 42.4721 26.669 29.0358 36.4673 29.0358Z" fill="#00895E"/>
<path d="M12.0068 36.5502C12.1126 36.5502 12.2057 36.6168 12.2386 36.7174C13.0752 39.276 15.3492 44.566 18.3039 46.8931C18.4082 46.9753 18.4316 47.1246 18.3544 47.2327L9.38958 59.7771C9.34397 59.8409 9.27036 59.8789 9.19193 59.8789H0.242973C0.108816 59.8789 5.30818e-05 59.77 0 59.6359V57.9467C0 55.7321 3.34388 56.6126 5.07752 54.7124C6.81114 52.8121 7.92412 47.8981 8.74347 45.2352L11.5559 36.717C11.5888 36.6174 11.682 36.5502 11.7868 36.5502H12.0068Z" fill="#00895E"/>
<path d="M48.2483 18.7396C48.2724 18.5 48.4724 18.3176 48.7131 18.3149C52.6686 18.2706 56.6137 19.1841 60.1961 21.0265C63.4456 22.6977 66.2467 25.0565 68.4295 27.9011C68.4977 27.99 68.5323 28.0996 68.5276 28.2116C68.425 30.6432 68.0722 33.8282 66.8956 37.3704C66.757 37.7876 66.1769 37.8042 65.9858 37.4083C64.3718 34.0634 61.9666 31.1207 58.9352 28.8583C55.8574 26.5613 52.2909 25.0826 48.564 24.5051C48.3239 24.4679 48.1442 24.2628 48.1442 24.0198V20.7927C48.1442 20.1227 48.1785 19.436 48.2483 18.7396Z" fill="#021E2E"/>
<path d="M26.8115 11.2192C27.5736 11.2192 28.1913 11.8369 28.1913 12.5989C28.1913 13.361 27.5736 13.9789 26.8115 13.9789C26.0494 13.9789 25.4315 13.361 25.4315 12.5989C25.4315 11.8369 26.0495 11.2192 26.8115 11.2192Z" fill="#00895E"/>
<path fillRule="evenodd" clipRule="evenodd" d="M23.6631 1.78722C27.7827 -0.806596 33.4221 -1.72847 29.0749 7.19716C29.0531 7.242 29.0453 7.29509 29.0524 7.34522C29.0582 7.38643 29.0875 7.42037 29.1205 7.44583C32.7058 10.2189 31.8872 13.711 33.1905 16.2496C34.5 18.8001 37.8049 19.0123 38.1 20.5585C38.395 22.1047 37.5244 23.1987 34.0831 23.1987L18.4503 23.1985C15.8538 23.1985 12.416 24.03 11.1561 28.4101C11.1257 28.5157 11.0292 28.5916 10.9193 28.5916H10.7212C10.5921 28.5916 10.4855 28.4957 10.4801 28.3667C10.2218 22.1799 12.4866 8.56574 23.6631 1.78722ZM25.571 9.16301C23.6773 9.1631 22.1421 10.6984 22.1421 12.5922C22.1421 14.4859 23.6773 16.021 25.571 16.0211C27.4648 16.0211 29.0001 14.4859 29.0002 12.5922C29.0002 10.6984 27.4648 9.16301 25.571 9.16301Z" fill="#00895E"/>
<path d="M52.6833 7.77483C52.7579 7.68412 52.8636 7.62439 52.9797 7.6073C56.7751 7.04893 60.6779 7.68487 64.1304 9.46815C65.7353 10.2972 67.1942 11.3493 68.4712 12.5811C68.5782 12.6843 68.6293 12.8319 68.6155 12.98C68.5824 13.3356 68.5656 13.6871 68.5656 14.032V19.8458C68.5656 20.2658 68.0657 20.4914 67.7425 20.2231C66.1134 18.8709 64.3307 17.6886 62.4184 16.7051C58.5749 14.7285 54.383 13.6442 50.1456 13.477C49.8113 13.4638 49.5823 13.1296 49.708 12.8195C50.4277 11.0433 51.4098 9.32483 52.6833 7.77483Z" fill="#021E2E"/>
<path d="M60.8287 3.1309C60.3555 3.02342 60.2839 2.37367 60.7427 2.2159C64.6295 0.879438 69.5278 0.562826 75.5881 1.8444C75.6008 1.84708 75.6139 1.85071 75.6256 1.85626C75.8203 1.94904 75.796 2.24488 75.5879 2.32442C73.5096 3.11843 71.742 4.94141 70.5001 7.13185C70.3488 7.3987 69.9943 7.47444 69.7499 7.28906C68.6906 6.48554 67.5575 5.76903 66.3603 5.15064C64.5942 4.23836 62.7347 3.56387 60.8287 3.1309Z" fill="#021E2E"/>
<path d="M96.8482 3.03225C99.1243 3.03225 100.889 3.57233 102.143 4.65249C103.416 5.71337 104.053 7.13108 104.053 8.90563C104.053 10.8538 103.426 12.339 102.172 13.3613C100.947 14.36 99.2346 14.8708 97.0343 14.8939C96.9315 14.895 96.8301 14.9212 96.7405 14.9717L96.551 15.0782C96.4613 15.1287 96.3602 15.1551 96.2574 15.1551H93.2228C92.8921 15.1551 92.624 15.4232 92.624 15.7539V21.5292C92.624 21.8599 92.3559 22.128 92.0252 22.128H88.3332C88.0025 22.128 87.7344 21.8599 87.7344 21.5292V3.63105C87.7344 3.30034 88.0025 3.03225 88.3332 3.03225H96.8482ZM96.1539 11.6253C97.1183 11.6253 97.8416 11.4324 98.3238 11.0467C98.806 10.6609 99.0472 10.0437 99.0472 9.19496C99.0472 8.36555 98.806 7.75796 98.3238 7.37219C97.8416 6.98642 97.1183 6.79353 96.1539 6.79353H93.2228C92.8921 6.79353 92.624 7.06162 92.624 7.39233V11.0265C92.624 11.3572 92.8921 11.6253 93.2228 11.6253H96.1539ZM98.658 12.7743C98.9077 12.7102 99.1703 12.813 99.3101 13.0296L104.585 21.2045C104.842 21.603 104.556 22.128 104.082 22.128H100.027C99.8144 22.128 99.6177 22.0151 99.5103 21.8315L95.1945 14.4513C94.9938 14.108 95.1773 13.6679 95.5625 13.569L98.658 12.7743Z" fill="#00895E"/>
<path d="M111.192 3.03225C111.523 3.03225 111.791 3.30034 111.791 3.63105V21.5292C111.791 21.8599 111.523 22.128 111.192 22.128H107.413C107.082 22.128 106.814 21.8599 106.814 21.5292V3.63105C106.814 3.30034 107.082 3.03225 107.413 3.03225H111.192Z" fill="#00895E"/>
<path d="M131.774 3.03225C132.104 3.03225 132.372 3.30034 132.372 3.63105V21.5292C132.372 21.8599 132.104 22.128 131.774 22.128H127.193C126.978 22.128 126.78 22.0133 126.674 21.8274L120.915 11.7989L119.473 8.97309C119.47 8.9672 119.464 8.9635 119.458 8.9635C119.448 8.9635 119.44 8.97173 119.44 8.98166L119.555 12.4933V21.5292C119.555 21.8599 119.287 22.128 118.956 22.128H115.756C115.425 22.128 115.157 21.8599 115.157 21.5292V3.63105C115.157 3.30034 115.425 3.03225 115.756 3.03225H120.337C120.551 3.03225 120.749 3.14691 120.856 3.33287L126.615 13.3613L128.057 16.1871C128.06 16.193 128.066 16.1967 128.072 16.1967C128.082 16.1967 128.09 16.1885 128.09 16.1786L127.975 12.6669V3.63105C127.975 3.30034 128.243 3.03225 128.573 3.03225H131.774Z" fill="#00895E"/>
<path d="M143.633 22.4173C141.936 22.4173 140.422 22.0412 139.091 21.2889C137.779 20.5367 136.757 19.4276 136.024 17.9616C135.291 16.4957 134.925 14.7115 134.925 12.609C134.925 10.5452 135.31 8.78026 136.082 7.31432C136.854 5.84839 137.953 4.72 139.38 3.92917C140.827 3.13834 142.524 2.74292 144.473 2.74292C146.633 2.74292 148.378 3.13834 149.709 3.92917C150.889 4.61323 151.834 5.66118 152.544 7.07302C152.696 7.37484 152.545 7.73552 152.231 7.85997L148.838 9.20466C148.502 9.33763 148.13 9.14315 147.997 8.80778C147.735 8.15173 147.361 7.65391 146.874 7.31432C146.237 6.87068 145.447 6.64886 144.501 6.64886C143.556 6.64886 142.746 6.88033 142.071 7.34325C141.396 7.78689 140.885 8.45235 140.538 9.33963C140.19 10.2076 140.017 11.2878 140.017 12.5801C140.017 13.9303 140.19 15.0587 140.538 15.9653C140.904 16.8718 141.435 17.5469 142.129 17.9906C142.843 18.4149 143.72 18.6271 144.762 18.6271C145.321 18.6271 145.832 18.5596 146.295 18.4246C146.758 18.2895 147.163 18.0967 147.51 17.8459C147.858 17.5759 148.128 17.248 148.321 16.8622C148.514 16.4571 148.61 15.9846 148.61 15.4445C148.61 15.2847 148.48 15.1551 148.321 15.1551H144.84C144.509 15.1551 144.241 14.8871 144.241 14.5563V12.4267C144.241 12.096 144.509 11.8279 144.84 11.8279H152.235C152.566 11.8279 152.834 12.096 152.834 12.4267V21.5292C152.834 21.8599 152.566 22.128 152.235 22.128H150C149.688 22.128 149.429 21.8894 149.403 21.5792L149.143 18.4811C149.117 18.1738 149.477 17.9898 149.711 18.1905C149.815 18.2799 149.858 18.4231 149.813 18.553C149.396 19.7607 148.686 20.7016 147.684 21.3757C146.643 22.0701 145.292 22.4173 143.633 22.4173Z" fill="#00895E"/>
<path d="M171.121 3.03225C171.452 3.03225 171.72 3.30034 171.72 3.63105V6.28153C171.72 6.61224 171.452 6.88033 171.121 6.88033H166.098C165.768 6.88033 165.5 7.14842 165.5 7.47913V21.5292C165.5 21.8599 165.231 22.128 164.901 22.128H161.122C160.791 22.128 160.523 21.8599 160.523 21.5292V7.47913C160.523 7.14842 160.255 6.88033 159.924 6.88033H154.872C154.542 6.88033 154.274 6.61224 154.274 6.28153V3.63105C154.274 3.30034 154.542 3.03225 154.872 3.03225H171.121Z" fill="#00895E"/>
<path d="M170.144 22.128C169.731 22.128 169.442 21.7201 169.579 21.3306L175.871 3.43247C175.955 3.19269 176.181 3.03225 176.435 3.03225H181.547C181.801 3.03225 182.028 3.19306 182.112 3.43324L188.376 21.3314C188.512 21.7207 188.223 22.128 187.811 22.128H183.978C183.714 22.128 183.481 21.9556 183.405 21.7035L179.801 9.86042L178.97 6.87904C178.966 6.8627 178.951 6.8514 178.934 6.8514C178.917 6.8514 178.901 6.86299 178.897 6.87961L178.123 9.83149L174.435 21.7068C174.357 21.9573 174.125 22.128 173.863 22.128H170.144ZM174.266 17.817C173.936 17.817 173.668 17.5489 173.668 17.2182V15.0306C173.668 14.6999 173.936 14.4318 174.266 14.4318H183.687C184.018 14.4318 184.286 14.6999 184.286 15.0306V17.2182C184.286 17.5489 184.018 17.817 183.687 17.817H174.266Z" fill="#00895E"/>
<path d="M194.385 3.03225C194.716 3.03225 194.984 3.30034 194.984 3.63105V21.5292C194.984 21.8599 194.716 22.128 194.385 22.128H190.607C190.276 22.128 190.008 21.8599 190.008 21.5292V3.63105C190.008 3.30034 190.276 3.03225 190.607 3.03225H194.385Z" fill="#00895E"/>
<path d="M203.327 17.6811C203.327 18.0118 203.595 18.2799 203.926 18.2799H212.305C212.636 18.2799 212.904 18.548 212.904 18.8787V21.5292C212.904 21.8599 212.636 22.128 212.305 22.128H198.95C198.619 22.128 198.351 21.8599 198.351 21.5292V3.63105C198.351 3.30034 198.619 3.03225 198.95 3.03225H202.729C203.059 3.03225 203.327 3.30034 203.327 3.63105V17.6811Z" fill="#00895E"/>
<path d="M95.8356 28.2678C98.8253 28.2678 101.111 29.0972 102.693 30.7561C104.294 32.4149 105.094 34.7681 105.094 37.8157C105.094 40.8633 104.294 43.2165 102.693 44.8753C101.111 46.5342 98.8253 47.3636 95.8356 47.3636H88.3332C88.0025 47.3636 87.7344 47.0955 87.7344 46.7648V28.8666C87.7344 28.5359 88.0025 28.2678 88.3332 28.2678H95.8356ZM95.3437 43.6023C96.964 43.6023 98.1406 43.1201 98.8736 42.1556C99.6258 41.1719 100.002 39.7253 100.002 37.8157C100.002 35.9061 99.6258 34.4691 98.8736 33.5047C98.1406 32.521 96.964 32.0291 95.3437 32.0291H93.3096C92.9789 32.0291 92.7108 32.2972 92.7108 32.6279V43.0035C92.7108 43.3342 92.9789 43.6023 93.3096 43.6023H95.3437Z" fill="#021E2E"/>
<path d="M112.011 28.2678C112.342 28.2678 112.61 28.5359 112.61 28.8666V46.7648C112.61 47.0955 112.342 47.3636 112.011 47.3636H108.232C107.902 47.3636 107.634 47.0955 107.634 46.7648V28.8666C107.634 28.5359 107.902 28.2678 108.232 28.2678H112.011Z" fill="#021E2E"/>
<path d="M123.875 47.6529C122.178 47.6529 120.664 47.2768 119.333 46.5245C118.021 45.7723 116.999 44.6632 116.266 43.1972C115.533 41.7313 115.167 39.9471 115.167 37.8446C115.167 35.7808 115.552 34.0158 116.324 32.5499C117.095 31.084 118.195 29.9556 119.622 29.1648C121.069 28.3739 122.766 27.9785 124.715 27.9785C126.875 27.9785 128.62 28.3739 129.951 29.1648C131.131 29.8488 132.076 30.8968 132.786 32.3086C132.938 32.6104 132.787 32.9711 132.473 33.0956L129.08 34.4402C128.744 34.5732 128.372 34.3787 128.239 34.0434C127.977 33.3873 127.603 32.8895 127.116 32.5499C126.479 32.1063 125.689 31.8845 124.743 31.8845C123.798 31.8845 122.988 32.1159 122.313 32.5788C121.638 33.0225 121.127 33.6879 120.78 34.5752C120.432 35.4432 120.259 36.5234 120.259 37.8157C120.259 39.1659 120.432 40.2943 120.78 41.2009C121.146 42.1074 121.677 42.7825 122.371 43.2262C123.085 43.6505 123.962 43.8627 125.004 43.8627C125.563 43.8627 126.074 43.7952 126.537 43.6602C127 43.5251 127.405 43.3322 127.752 43.0815C128.1 42.8115 128.37 42.4836 128.563 42.0978C128.755 41.6927 128.852 41.2201 128.852 40.6801C128.852 40.5203 128.722 40.3907 128.563 40.3907H125.082C124.751 40.3907 124.483 40.1226 124.483 39.7919V37.6622C124.483 37.3315 124.751 37.0634 125.082 37.0634H132.477C132.808 37.0634 133.076 37.3315 133.076 37.6622V46.7648C133.076 47.0955 132.808 47.3636 132.477 47.3636H130.242C129.93 47.3636 129.671 47.125 129.645 46.8148L129.385 43.7167C129.359 43.4094 129.719 43.2254 129.953 43.4261C130.057 43.5155 130.099 43.6587 130.055 43.7886C129.638 44.9963 128.928 45.9372 127.926 46.6113C126.884 47.3057 125.534 47.6529 123.875 47.6529Z" fill="#021E2E"/>
<path d="M140.395 28.2678C140.726 28.2678 140.994 28.5359 140.994 28.8666V46.7648C140.994 47.0955 140.726 47.3636 140.395 47.3636H136.616C136.285 47.3636 136.017 47.0955 136.017 46.7648V28.8666C136.017 28.5359 136.285 28.2678 136.616 28.2678H140.395Z" fill="#021E2E"/>
<path d="M159.819 28.2678C160.15 28.2678 160.418 28.5359 160.418 28.8666V31.5171C160.418 31.8478 160.15 32.1159 159.819 32.1159H154.796C154.466 32.1159 154.198 32.384 154.198 32.7147V46.7648C154.198 47.0955 153.93 47.3636 153.599 47.3636H149.82C149.489 47.3636 149.221 47.0955 149.221 46.7648V32.7147C149.221 32.384 148.953 32.1159 148.622 32.1159H143.57C143.24 32.1159 142.972 31.8478 142.972 31.5171V28.8666C142.972 28.5359 143.24 28.2678 143.57 28.2678H159.819Z" fill="#021E2E"/>
<path d="M158.842 47.3636C158.429 47.3636 158.14 46.9557 158.277 46.5662L164.569 28.6681C164.653 28.4283 164.879 28.2678 165.134 28.2678H170.245C170.499 28.2678 170.726 28.4287 170.81 28.6688L177.074 46.567C177.21 46.9563 176.921 47.3636 176.509 47.3636H172.676C172.412 47.3636 172.179 47.1912 172.103 46.9391L168.5 35.096L167.668 32.1146C167.664 32.0983 167.649 32.087 167.632 32.087C167.615 32.087 167.6 32.0986 167.595 32.1152L166.821 35.0671L163.133 46.9424C163.055 47.1929 162.824 47.3636 162.561 47.3636H158.842ZM162.965 43.0526C162.634 43.0526 162.366 42.7845 162.366 42.4538V40.2662C162.366 39.9355 162.634 39.6674 162.965 39.6674H172.385C172.716 39.6674 172.984 39.9355 172.984 40.2662V42.4538C172.984 42.7845 172.716 43.0526 172.385 43.0526H162.965Z" fill="#021E2E"/>
<path d="M183.682 42.9167C183.682 43.2474 183.95 43.5155 184.281 43.5155H192.66C192.991 43.5155 193.259 43.7836 193.259 44.1143V46.7648C193.259 47.0955 192.991 47.3636 192.66 47.3636H179.305C178.974 47.3636 178.706 47.0955 178.706 46.7648V28.8666C178.706 28.5359 178.974 28.2678 179.305 28.2678H183.084C183.414 28.2678 183.682 28.5359 183.682 28.8666V42.9167Z" fill="#021E2E"/>
<path d="M90.1581 53.5045C90.8109 53.5045 91.3345 53.6726 91.7287 54.0087C92.123 54.3448 92.3201 54.8004 92.3201 55.3757C92.3201 55.9509 92.1197 56.4001 91.719 56.7233C91.3248 57.04 90.8012 57.1983 90.1484 57.1983L90.0806 57.2468H88.51V59.9032H87.7344V53.5045H90.1581ZM90.1484 56.5197C90.6073 56.5197 90.9467 56.426 91.1664 56.2385C91.3926 56.0446 91.5057 55.757 91.5057 55.3757C91.5057 54.9943 91.3926 54.71 91.1664 54.5225C90.9467 54.3286 90.6073 54.2317 90.1484 54.2317H88.51V56.5197H90.1484ZM90.5944 56.6748L92.7079 59.9032H91.7869L89.9448 57.1014L90.5944 56.6748Z" fill="#00895E"/>
<path d="M94.3274 59.9032V53.5045H98.8161V54.2317H95.103V56.2967H97.9921V57.0238H95.103V59.1761H98.9616V59.9032H94.3274Z" fill="#00895E"/>
<path d="M102.711 53.4076C103.273 53.4076 103.758 53.5239 104.165 53.7566C104.572 53.9828 104.911 54.3189 105.183 54.7649L104.533 55.269C104.294 54.8554 104.023 54.5645 103.719 54.3965C103.422 54.222 103.06 54.1347 102.633 54.1347C102.29 54.1347 102.006 54.1832 101.78 54.2801C101.56 54.3771 101.399 54.5064 101.295 54.6679C101.192 54.8231 101.14 55.0008 101.14 55.2012C101.14 55.4274 101.211 55.6277 101.353 55.8023C101.495 55.9703 101.78 56.1028 102.206 56.1998L103.593 56.51C104.207 56.6457 104.633 56.8526 104.873 57.1305C105.118 57.4019 105.241 57.7413 105.241 58.1484C105.241 58.5104 105.138 58.8336 104.931 59.118C104.73 59.3959 104.446 59.6124 104.078 59.7675C103.709 59.9226 103.276 60.0002 102.778 60.0002C102.313 60.0002 101.903 59.9388 101.547 59.816C101.198 59.6867 100.898 59.5154 100.646 59.3022C100.393 59.0889 100.187 58.8497 100.025 58.5847L100.704 58.0321C100.827 58.2777 100.985 58.4942 101.179 58.6817C101.373 58.8691 101.605 59.0145 101.877 59.118C102.155 59.2214 102.471 59.2731 102.827 59.2731C103.157 59.2731 103.441 59.2343 103.68 59.1567C103.926 59.0727 104.113 58.9531 104.242 58.798C104.372 58.6364 104.436 58.4425 104.436 58.2163C104.436 58.0095 104.368 57.8253 104.233 57.6637C104.097 57.4957 103.842 57.3696 103.467 57.2856L101.964 56.9463C101.57 56.8558 101.25 56.733 101.004 56.5779C100.765 56.4163 100.591 56.2288 100.481 56.0155C100.377 55.7958 100.326 55.5599 100.326 55.3078C100.326 54.9653 100.419 54.6518 100.607 54.3674C100.801 54.0765 101.075 53.8439 101.431 53.6694C101.793 53.4948 102.219 53.4076 102.711 53.4076Z" fill="#00895E"/>
<path d="M109.59 53.4076C110.198 53.4076 110.721 53.5433 111.161 53.8148C111.607 54.0798 111.95 54.4579 112.189 54.9491C112.434 55.4403 112.557 56.0252 112.557 56.7039C112.557 57.3825 112.434 57.9675 112.189 58.4587C111.95 58.9499 111.607 59.3312 111.161 59.6027C110.721 59.8677 110.198 60.0002 109.59 60.0002C108.983 60.0002 108.456 59.8677 108.01 59.6027C107.571 59.3312 107.228 58.9499 106.982 58.4587C106.743 57.9675 106.624 57.3825 106.624 56.7039C106.624 56.0252 106.743 55.4403 106.982 54.9491C107.228 54.4579 107.571 54.0798 108.01 53.8148C108.456 53.5433 108.983 53.4076 109.59 53.4076ZM109.59 54.1347C109.151 54.1347 108.77 54.2381 108.446 54.445C108.123 54.6453 107.874 54.9394 107.7 55.3272C107.525 55.7085 107.438 56.1674 107.438 56.7039C107.438 57.2404 107.525 57.7025 107.7 58.0903C107.874 58.4716 108.123 58.7657 108.446 58.9725C108.77 59.1729 109.151 59.2731 109.59 59.2731C110.036 59.2731 110.418 59.1729 110.734 58.9725C111.058 58.7657 111.306 58.4716 111.481 58.0903C111.655 57.7025 111.743 57.2404 111.743 56.7039C111.743 56.1674 111.655 55.7085 111.481 55.3272C111.306 54.9394 111.058 54.6453 110.734 54.445C110.418 54.2381 110.036 54.1347 109.59 54.1347Z" fill="#00895E"/>
<path d="M119.305 53.5045V57.5183C119.305 58.3391 119.089 58.9596 118.656 59.3797C118.223 59.7934 117.602 60.0002 116.794 60.0002C115.993 60.0002 115.372 59.7934 114.933 59.3797C114.5 58.9596 114.283 58.3391 114.283 57.5183V53.5045H115.059V57.3244C115.059 57.9901 115.198 58.4813 115.476 58.798C115.76 59.1147 116.2 59.2731 116.794 59.2731C117.389 59.2731 117.825 59.1147 118.103 58.798C118.387 58.4813 118.53 57.9901 118.53 57.3244V53.5045H119.305Z" fill="#00895E"/>
<path d="M123.843 53.5045C124.495 53.5045 125.019 53.6726 125.413 54.0087C125.807 54.3448 126.005 54.8004 126.005 55.3757C126.005 55.9509 125.804 56.4001 125.403 56.7233C125.009 57.04 124.486 57.1983 123.833 57.1983L123.765 57.2468H122.194V59.9032H121.419V53.5045H123.843ZM123.833 56.5197C124.292 56.5197 124.631 56.426 124.851 56.2385C125.077 56.0446 125.19 55.757 125.19 55.3757C125.19 54.9943 125.077 54.71 124.851 54.5225C124.631 54.3286 124.292 54.2317 123.833 54.2317H122.194V56.5197H123.833ZM124.279 56.6748L126.392 59.9032H125.471L123.629 57.1014L124.279 56.6748Z" fill="#00895E"/>
<path d="M133.113 58.2648C132.977 58.6267 132.783 58.9402 132.531 59.2052C132.279 59.4637 131.982 59.6609 131.639 59.7966C131.303 59.9323 130.935 60.0002 130.534 60.0002C129.926 60.0002 129.4 59.8677 128.954 59.6027C128.514 59.3312 128.172 58.9499 127.926 58.4587C127.687 57.9675 127.567 57.3825 127.567 56.7039C127.567 56.0252 127.687 55.4403 127.926 54.9491C128.172 54.4579 128.514 54.0798 128.954 53.8148C129.4 53.5433 129.92 53.4076 130.514 53.4076C130.928 53.4076 131.297 53.4658 131.62 53.5821C131.943 53.692 132.218 53.86 132.444 54.0862C132.676 54.306 132.861 54.5775 132.996 54.9006L132.231 55.2593C132.088 54.8909 131.881 54.613 131.61 54.4256C131.345 54.2317 130.999 54.1347 130.573 54.1347C130.14 54.1347 129.758 54.2381 129.429 54.445C129.099 54.6453 128.84 54.9362 128.653 55.3175C128.472 55.6988 128.382 56.161 128.382 56.7039C128.382 57.2404 128.469 57.7025 128.643 58.0903C128.818 58.4716 129.067 58.7657 129.39 58.9725C129.713 59.1729 130.094 59.2731 130.534 59.2731C130.96 59.2731 131.332 59.1664 131.649 58.9531C131.966 58.7334 132.195 58.407 132.337 57.9739L133.113 58.2648Z" fill="#00895E"/>
<path d="M134.747 59.9032V53.5045H139.236V54.2317H135.522V56.2967H138.412V57.0238H135.522V59.1761H139.381V59.9032H134.747Z" fill="#00895E"/>
<path d="M145.554 54.2317H141.85V56.2967H144.739V57.0238H141.85V59.9032H141.075V53.5045H145.554V54.2317Z" fill="#00895E"/>
<path d="M152.033 53.5045V57.5183C152.033 58.3391 151.817 58.9596 151.384 59.3797C150.951 59.7934 150.33 60.0002 149.522 60.0002C148.721 60.0002 148.101 59.7934 147.661 59.3797C147.228 58.9596 147.011 58.3391 147.011 57.5183V53.5045H147.787V57.3244C147.787 57.9901 147.926 58.4813 148.204 58.798C148.488 59.1147 148.928 59.2731 149.522 59.2731C150.117 59.2731 150.553 59.1147 150.831 58.798C151.116 58.4813 151.258 57.9901 151.258 57.3244V53.5045H152.033Z" fill="#00895E"/>
<path d="M154.923 59.1761H158.587V59.9032H154.147V53.5045H154.923V59.1761Z" fill="#00895E"/>
<path d="M169.457 53.5045V59.9032H168.72V55.8798L168.807 54.1929H168.797L166.694 59.9032H166.034L163.931 54.1929H163.921L164.008 55.8798V59.9032H163.271V53.5045H164.464L165.87 57.3922L166.354 58.9919H166.374L166.868 57.4019L168.264 53.5045H169.457Z" fill="#00895E"/>
<path d="M171.692 59.9032V53.5045H176.18V54.2317H172.467V56.2967H175.356V57.0238H172.467V59.1761H176.326V59.9032H171.692Z" fill="#00895E"/>
<path d="M180.085 53.5045C181.086 53.5045 181.872 53.7825 182.44 54.3383C183.016 54.8877 183.303 55.6762 183.303 56.7039C183.303 57.7316 183.016 58.5233 182.44 59.0792C181.872 59.6286 181.086 59.9032 180.085 59.9032H178.019V53.5045H180.085ZM180.162 59.1761C180.892 59.1761 181.461 58.9596 181.868 58.5266C182.282 58.087 182.489 57.4795 182.489 56.7039C182.489 55.9283 182.282 55.324 181.868 54.8909C181.461 54.4514 180.892 54.2317 180.162 54.2317H178.795V59.1761H180.162Z" fill="#00895E"/>
<path d="M185.928 53.5045V59.9032H185.152V53.5045H185.928Z" fill="#00895E"/>
<path d="M187.371 59.9032L189.863 53.5045H190.784L193.266 59.9032H192.442L190.619 55.1333L190.319 54.2414H190.299L190.018 55.1042L188.186 59.9032H187.371ZM188.593 58.1291V57.4019H192.015V58.1291H188.593Z" fill="#00895E"/>
</svg>
