<svg width="192" height="43" viewBox="0 0 192 43" fill="none" xmlns="http://www.w3.org/2000/svg">
<path d="M60.0881 11.2408C59.7706 8.16644 57.9193 6.67605 54.1198 6.67605C50.5943 6.67605 48.7397 7.94255 48.7397 10.2015C48.7397 12.0996 50.0496 13.1857 53.3947 13.9977C56.7865 14.8131 60.0847 15.6251 62.3003 16.6209C64.9235 17.7972 67.002 19.6485 67.002 23.8991C67.002 30.4989 62.0296 33.4363 55.0221 33.4363C47.6069 33.4363 42.454 30.1347 42.3203 23.4012H48.3788C48.469 26.4755 51.0455 28.3736 55.0689 28.3736C58.7748 28.3736 60.9001 26.793 60.9001 24.123C60.9001 22.3586 59.9945 21.1389 56.2451 20.3268C52.5392 19.5115 50.1432 18.9701 48.0179 18.0211C44.8065 16.5741 42.9987 14.4054 42.9987 10.6059C42.9987 5.22575 46.6612 1.38281 53.9828 1.38281C61.3044 1.38281 65.8257 5.49643 66.053 11.2375H60.0847L60.0881 11.2408Z" fill="#171717"/>
<path d="M83.6459 32.3966V29.2788C82.1087 31.8118 79.8029 32.9847 76.7286 32.9847C72.2975 32.9847 69.1797 29.6831 69.1797 24.8009V10.1543H75.0577V23.8987C75.0577 26.7023 76.3242 28.0591 78.8104 28.0591C81.7946 28.0591 83.3752 25.9337 83.3752 22.9964V10.1543H89.2064V32.3966H83.6459Z" fill="#171717"/>
<path d="M92.2768 32.3968V10.1545H97.7906V12.8212C99.7354 9.83708 101.994 9.56641 104.39 9.56641H105.159V15.5781C104.618 15.4879 104.073 15.4411 103.532 15.4411C99.9159 15.4411 98.1515 17.2489 98.1515 20.8212V32.3935H92.2734L92.2768 32.3968Z" fill="#171717"/>
<path d="M109.591 32.3969V14.315H106.289V10.1546H109.591C109.591 4.73103 112.708 2.01758 119.038 2.01758V6.76277C116.053 6.76277 115.375 7.57815 115.375 10.1546H119.171V14.315H115.375V32.3969H109.587H109.591Z" fill="#171717"/>
<path d="M121.121 32.3968V10.1545H126.634V12.8212C128.579 9.83708 130.838 9.56641 133.234 9.56641H134.003V15.5781C133.461 15.4879 132.917 15.4411 132.375 15.4411C128.76 15.4411 126.995 17.2489 126.995 20.8212V32.3935H121.117L121.121 32.3968Z" fill="#171717"/>
<path d="M136.266 7.48792V2.01758H142.144V7.48792H136.266ZM136.266 32.3969V10.1546H142.144V32.3969H136.266Z" fill="#171717"/>
<path d="M160.808 29.4127C159.993 31.401 157.597 32.5773 154.706 32.5773C147.381 32.5773 144.852 26.9699 144.852 21.1387C144.852 14.2214 149.192 9.56641 154.573 9.56641C157.376 9.56641 159.411 10.6525 160.811 12.9114V10.1545H166.689V32.6241C166.689 39.3141 161.807 42.9298 155.615 42.9298C149.423 42.9298 144.855 39.3576 144.855 33.6165H150.325C150.325 36.2832 152.27 37.8672 155.207 37.8672C158.325 37.8672 160.815 36.0125 160.815 33.0752V29.4127H160.808ZM160.989 21.8204C160.989 16.9816 159.314 14.6792 155.969 14.6792C152.624 14.6792 150.95 16.8947 150.95 21.4595C150.95 25.4394 153.075 27.9691 155.969 27.9691C158.863 27.9691 160.989 25.5731 160.989 21.8204Z" fill="#171717"/>
<path d="M169.273 21.2757C169.273 14.2247 173.658 9.56641 180.712 9.56641C187.766 9.56641 192.014 14.1779 192.014 21.2757C192.014 28.3734 187.629 32.985 180.712 32.985C173.795 32.985 169.273 28.193 169.273 21.2757ZM186.089 21.2757C186.089 16.7544 184.281 14.5388 180.709 14.5388C177.136 14.5388 175.329 16.7544 175.329 21.2757C175.329 25.797 177.136 28.056 180.709 28.056C184.281 28.056 186.089 25.797 186.089 21.2757Z" fill="#171717"/>
<path d="M16.254 0C7.2782 0 0 7.27819 0 16.254C0 16.5447 0.00668338 16.8354 0.0233918 17.1228C0.414369 17.5906 0.79198 18.0485 1.15957 18.4896C3.42189 21.32 5.34336 23.6892 7.38179 23.6892C10.4361 23.6892 12.254 21.9783 12.3676 18.8104C10.2189 16.548 6.26232 11.1479 8.30075 7.07101C8.41437 6.84712 8.73851 6.61988 9.07937 6.50627C9.19298 6.47953 9.29992 6.43609 9.39683 6.43609C9.69424 6.43275 9.93484 6.54971 10.1019 6.72013C10.4428 7.06099 11.1178 7.50543 11.7995 7.95656C13.5773 9.23977 15.873 10.7903 17.0292 12.6683C17.7243 14.5564 17.7243 15.4787 17.7243 15.4787C17.7243 15.4787 18.1788 14.6566 18.1788 13.5906C19.579 13.8881 21.1228 14.9708 22.7602 16.127C23.8931 16.919 24.939 17.7043 25.731 17.9315C26.0718 18.0451 27.0911 17.9616 27.3183 18.6399C27.4319 18.9808 27.1078 19.2414 26.7502 19.7293C25.2765 22.1086 22.0886 22.787 18.1287 21.995C17.6107 25.457 16.4378 29.1328 14.4495 32.4144C15.0409 32.4779 15.6424 32.5113 16.254 32.5113C25.2297 32.5113 32.5079 25.2331 32.5079 16.2573C32.5079 7.28154 25.2331 0 16.254 0Z" fill="#171717"/>
</svg>
