<svg width="119" height="25" viewBox="0 0 119 25" fill="none" xmlns="http://www.w3.org/2000/svg">
<g clip-path="url(#clip0_1_89)">
<path d="M22.477 8.17938C22.477 7.66606 22.6567 7.22672 23.0161 6.86135C23.3756 6.49822 23.8193 6.31665 24.3495 6.31665C24.8798 6.31665 25.2947 6.49822 25.6541 6.86135C26.0135 7.22448 26.1932 7.66382 26.1932 8.17938C26.1932 8.69493 26.0135 9.16342 25.6541 9.52655C25.2947 9.88968 24.8598 10.0712 24.3495 10.0712C23.8393 10.0712 23.3756 9.88968 23.0161 9.52655C22.6567 9.16342 22.477 8.71287 22.477 8.17938ZM22.477 17.428C22.477 16.9125 22.6567 16.4731 23.0161 16.1122C23.3756 15.7491 23.8193 15.5675 24.3495 15.5675C24.8798 15.5675 25.2947 15.7491 25.6541 16.1122C26.0135 16.4754 26.1932 16.9147 26.1932 17.428C26.1932 17.9413 26.0135 18.4121 25.6541 18.7752C25.2947 19.1383 24.8598 19.3199 24.3495 19.3199C23.8393 19.3199 23.3756 19.1383 23.0161 18.7752C22.6567 18.4121 22.477 17.9637 22.477 17.428Z" fill="black" style="fill:black;fill-opacity:1;"/>
<path d="M28.5361 22.8481V2.15187C28.5361 1.63183 28.718 1.19025 29.0797 0.824875C29.4413 0.459503 29.8806 0.275696 30.3953 0.275696H34.4333C35.9153 0.275696 37.2066 0.77332 38.3048 1.77081C38.7374 2.18774 39.159 2.77726 39.5672 3.54163C39.9754 4.30376 40.1795 5.32142 40.1795 6.59462V18.4076C40.1795 19.6785 39.9754 20.694 39.5672 21.4516C39.159 22.2115 38.7374 22.7988 38.3048 23.2157C37.2066 24.2132 35.9153 24.7176 34.4333 24.7265H30.3953C29.8806 24.7265 29.4413 24.5427 29.0797 24.1773C28.7158 23.812 28.5361 23.3681 28.5361 22.8503M32.2523 20.9719H34.4266C34.5664 20.9719 34.7572 20.9473 34.9924 20.8957C35.2297 20.8442 35.456 20.7298 35.6713 20.5528C35.8887 20.3757 36.075 20.1179 36.2304 19.7817C36.3857 19.4454 36.4633 18.9882 36.4633 18.4076V6.59462C36.4633 6.01406 36.3857 5.55679 36.2304 5.22055C36.075 4.88432 35.8865 4.62879 35.6713 4.44946C35.4538 4.27238 35.2275 4.15806 34.9924 4.1065C34.755 4.05495 34.5664 4.03029 34.4266 4.03029H32.2523V20.9719Z" fill="black" style="fill:black;fill-opacity:1;"/>
<path d="M0 22.9377V2.27515C0 1.75511 0.181928 1.31352 0.543566 0.945908C0.905204 0.580536 1.34449 0.396729 1.857 0.396729C2.36951 0.396729 2.8088 0.580536 3.17043 0.945908C3.53207 1.31128 3.714 1.75511 3.714 2.27515V9.69243L8.79246 1.37404C9.06535 0.916768 9.44696 0.632091 9.9395 0.520014C10.0904 0.488632 10.2368 0.468458 10.3788 0.459492C10.7227 0.459492 11.0488 0.555879 11.3616 0.748652C11.7943 1.02212 12.0716 1.40991 12.1914 1.90753C12.2314 2.05996 12.2513 2.2079 12.2513 2.35136C12.2513 2.68759 12.1493 3.00813 11.9496 3.31298L7.40359 10.7773L13.0389 21.9649C13.1698 22.2496 13.2364 22.5388 13.2364 22.8346C13.2364 23.0274 13.2053 23.2247 13.1454 23.4286C12.9946 23.9173 12.6773 24.2737 12.1936 24.4979C11.9429 24.6212 11.6656 24.6862 11.3639 24.6974C11.0111 24.6974 10.6916 24.6077 10.4032 24.4306C10.117 24.2535 9.89291 23.9958 9.73095 23.6595L5.13837 14.5342L3.71844 16.8542V22.9445C3.71844 23.4645 3.53873 23.9061 3.18153 24.2715C2.82433 24.6368 2.38282 24.8207 1.85922 24.8207C1.33562 24.8207 0.907423 24.6368 0.545785 24.2715C0.184147 23.9061 0.00221864 23.4623 0.00221864 22.9445" fill="black" style="fill:black;fill-opacity:1;"/>
<path d="M16.0873 22.8481V2.15187C16.0873 1.63183 16.2693 1.19025 16.6309 0.824875C16.9925 0.459503 17.4318 0.275696 17.9443 0.275696C18.4568 0.275696 18.9205 0.459503 19.2733 0.824875C19.6261 1.19025 19.8013 1.63407 19.8013 2.15187V22.8459C19.8013 23.3659 19.6261 23.8075 19.2733 24.1729C18.9205 24.5382 18.4768 24.722 17.9443 24.722C17.4119 24.722 16.9925 24.5382 16.6309 24.1729C16.2693 23.8075 16.0873 23.3637 16.0873 22.8459" fill="black" style="fill:black;fill-opacity:1;"/>
<path d="M42.8242 18.6206C42.8242 18.1005 43.0039 17.6589 43.3611 17.2936C43.7205 16.9282 44.162 16.7444 44.6878 16.7444C45.2136 16.7444 45.6662 16.9282 46.0146 17.2936C46.3629 17.6589 46.5382 18.1028 46.5382 18.6206C46.5382 18.9164 46.5648 19.2123 46.6202 19.5127C46.6757 19.8131 46.7822 20.091 46.9442 20.3443C47.1039 20.5976 47.3435 20.8016 47.6652 20.954C47.9847 21.1064 48.4107 21.1826 48.9409 21.1826C49.3137 21.1826 49.6598 21.1356 49.9837 21.0459C50.3054 20.954 50.5783 20.8128 50.7979 20.6178C51.2927 20.1807 51.539 19.5239 51.539 18.6497C51.539 18.0086 51.4547 17.4482 51.2905 16.9708C51.1241 16.4933 50.8822 16.0495 50.565 15.6438C50.2477 15.2381 49.8572 14.8503 49.3935 14.4849L47.8405 13.3103C47.308 12.9337 46.7778 12.5415 46.2519 12.1357C45.7239 11.73 45.2336 11.266 44.7788 10.746C44.2441 10.0735 43.8336 9.38088 43.5496 8.66359C43.2657 7.94629 43.1259 7.15951 43.1259 6.30548C43.1259 6.18443 43.1303 5.9558 43.1414 5.62629C43.1503 5.29678 43.2035 4.91123 43.3012 4.47413C43.3966 4.03703 43.5519 3.57751 43.7693 3.09334C43.9867 2.60916 44.2995 2.14965 44.7144 1.71254C45.0672 1.31579 45.593 0.932485 46.2919 0.560387C46.9908 0.186049 47.896 0 49.0031 0C50.1102 0 51.0442 0.192773 51.7142 0.580561C52.3843 0.968349 52.8945 1.3539 53.2473 1.73944C53.64 2.21689 53.9351 2.72348 54.1303 3.25921C54.3278 3.7927 54.4543 4.2836 54.5164 4.73191C54.5674 5.06814 54.5874 5.37299 54.5763 5.6487V5.90872C54.5563 6.24496 54.5363 6.44221 54.5164 6.50498C54.4565 6.88156 54.33 7.19089 54.1392 7.43522C53.9772 7.66834 53.7554 7.86336 53.4736 8.01578C53.3028 8.10768 53.1009 8.15252 52.8701 8.15252C52.7082 8.15252 52.5373 8.13234 52.3576 8.09199C51.905 8.0113 51.5656 7.86111 51.3459 7.64144C51.1241 7.42177 50.9776 7.19313 50.9066 6.95553C50.8357 6.71568 50.8068 6.50274 50.8157 6.31444C50.8246 6.12615 50.8312 6.01184 50.8312 5.97149C50.8512 5.89079 50.8623 5.77647 50.8623 5.62853C50.8623 5.48059 50.8467 5.32368 50.8179 5.15556C50.7891 4.98745 50.7425 4.82381 50.6826 4.66018C50.6227 4.49655 50.5406 4.35085 50.4407 4.21635C50.19 3.90254 49.7108 3.75011 49.0053 3.75908C48.4506 3.75908 48.0668 3.83081 47.8494 3.97203C47.6319 4.11548 47.4944 4.21635 47.4345 4.27688C47.2925 4.42034 47.186 4.58621 47.1106 4.78123C47.0351 4.974 46.9774 5.16229 46.9375 5.3461C46.8976 5.5299 46.8709 5.68905 46.8621 5.82579C46.8532 5.96252 46.8465 6.06115 46.8465 6.12391V6.2472C46.8465 6.66413 46.9198 7.04519 47.0662 7.39039C47.2126 7.73783 47.4123 8.06061 47.6697 8.35874C47.927 8.65911 48.2509 8.96171 48.6436 9.26657L49.9726 10.2439L51.7542 11.6023C52.3599 12.0797 52.9167 12.6289 53.4315 13.2498C54.6495 14.7965 55.2596 16.5964 55.2596 18.6519C55.2596 19.293 55.1908 19.8691 55.0555 20.3847C54.9202 20.898 54.7538 21.353 54.5563 21.7498C54.3588 22.1465 54.1392 22.4895 53.8929 22.7809C53.6444 23.07 53.4026 23.3233 53.1608 23.5363C52.0027 24.471 50.5983 24.9395 48.9454 24.9395C48.14 24.9395 47.3857 24.8252 46.6868 24.5965C45.9857 24.3679 45.3711 24.0137 44.8365 23.5363C44.6057 23.3525 44.3705 23.1126 44.1331 22.819C43.8958 22.5253 43.6805 22.1779 43.4831 21.7811C43.2856 21.3844 43.1281 20.9271 43.0061 20.4071C42.8863 19.887 42.8242 19.293 42.8242 18.6206Z" fill="black" style="fill:black;fill-opacity:1;"/>
<path d="M58.0373 19.0778V6.30322C58.0373 5.03226 58.2437 4.01684 58.6563 3.2592C59.069 2.50155 59.4927 1.91202 59.9254 1.4951C60.4401 1.01765 61.0258 0.647791 61.6848 0.387771C62.3437 0.127752 63.0359 -0.0022583 63.7614 -0.0022583C64.4869 -0.0022583 65.1725 0.123268 65.8846 0.37208C66.5946 0.623134 67.2269 1.00644 67.7794 1.52424C68.3318 2.04428 68.7866 2.69881 69.1394 3.49232C69.4922 4.28583 69.6674 5.22279 69.6674 6.30098C69.6674 6.84119 69.4855 7.28726 69.1239 7.64367C68.7622 8.00007 68.3229 8.17715 67.8104 8.17715C67.2979 8.17715 66.8586 8.00231 66.497 7.65039C66.1353 7.30071 65.9534 6.85016 65.9534 6.30098C65.9534 5.7518 65.8758 5.29676 65.7182 4.96501C65.5629 4.63551 65.3766 4.37997 65.1591 4.20289C64.9417 4.02581 64.7043 3.90476 64.4492 3.84424C64.1918 3.78372 63.9633 3.75234 63.7614 3.75234C63.6194 3.75234 63.433 3.77699 63.2023 3.82855C62.9716 3.8801 62.7475 3.99442 62.5301 4.17151C62.3126 4.34859 62.1285 4.60413 61.9776 4.93363C61.8268 5.26538 61.7513 5.72042 61.7513 6.30098V18.9523C61.7513 19.1249 61.7713 19.3199 61.8112 19.5396C61.8512 19.7592 61.9111 19.9767 61.9932 20.1963C62.073 20.416 62.1906 20.6021 62.3393 20.7545C62.3992 20.815 62.5323 20.9114 62.7408 21.0436C62.9472 21.1759 63.2977 21.2431 63.7902 21.2431C64.3249 21.2431 64.6932 21.1759 64.8996 21.0436C65.1059 20.9114 65.239 20.806 65.3011 20.7231C65.594 20.4272 65.7737 20.0618 65.8447 19.6247C65.9157 19.1876 65.9512 18.8626 65.9512 18.6474V18.3112C65.9512 18.1072 66.0045 17.8831 66.1109 17.6387C66.2152 17.3944 66.3883 17.168 66.6257 16.9595C66.8608 16.7511 67.2069 16.6368 67.6596 16.6166H67.7949C68.1965 16.6166 68.5204 16.704 68.7622 16.8766C69.024 17.0604 69.2193 17.2689 69.3524 17.502C69.5143 17.7777 69.6186 18.087 69.6696 18.4322C69.6696 18.4928 69.6652 18.6967 69.6541 19.0419C69.6452 19.3894 69.592 19.7951 69.4966 20.2636C69.4012 20.7321 69.2392 21.2364 69.0129 21.7744C68.7866 22.3146 68.456 22.8167 68.0234 23.2852C67.6706 23.682 67.1493 24.0653 66.4593 24.4374C65.7693 24.8094 64.8796 24.9955 63.7925 24.9955C62.7053 24.9955 61.8112 24.8072 61.1412 24.4306C60.4712 24.054 59.9609 23.673 59.6081 23.2852C59.1955 22.8279 58.876 22.337 58.6497 21.8125C58.4234 21.288 58.2658 20.7926 58.1727 20.3241C58.0817 19.8556 58.0373 19.4387 58.0373 19.0733" fill="black" style="fill:black;fill-opacity:1;"/>
<path d="M72.4164 19.0464V6.30323C72.4164 5.05244 72.6227 4.0415 73.0354 3.27489C73.448 2.50604 73.8718 1.92324 74.3044 1.52649C75.3516 0.528996 76.6318 0.0313721 78.1404 0.0313721C78.846 0.0313721 79.5471 0.156899 80.2481 0.405711C80.9492 0.654523 81.5749 1.03783 82.1295 1.55787C82.6842 2.07791 83.1368 2.73244 83.4896 3.52595C83.8423 4.31946 84.0176 5.25642 84.0176 6.33461V18.4973C84.0176 18.6205 84.0132 18.8537 84.0021 19.1989C83.9932 19.5463 83.9355 19.9408 83.829 20.3891C83.7247 20.8374 83.5584 21.3149 83.3321 21.8237C83.1035 22.3325 82.784 22.8055 82.3714 23.2426C82.0186 23.6394 81.4972 24.0272 80.8072 24.4015C80.1172 24.7781 79.2276 24.9664 78.1404 24.9664C77.0533 24.9664 76.1592 24.7781 75.4892 24.4015C74.8191 24.0249 74.3089 23.6394 73.9561 23.2426C73.5434 22.7853 73.2284 22.2967 73.0109 21.7766C72.7935 21.2588 72.6404 20.7657 72.5517 20.2972C72.4607 19.8287 72.4141 19.4118 72.4141 19.0464M76.1304 18.9388C76.1304 19.1226 76.1503 19.3177 76.1903 19.5261C76.2302 19.7346 76.2901 19.9475 76.3722 20.1672C76.4521 20.3869 76.5674 20.5707 76.7183 20.7231C76.7782 20.7836 76.9113 20.88 77.1199 21.0123C77.3262 21.1445 77.6657 21.2118 78.1404 21.2118C78.6751 21.2118 79.0501 21.14 79.2653 20.9988C79.4827 20.8554 79.6203 20.7545 79.6802 20.694C79.8222 20.5505 79.9353 20.3734 80.0196 20.1605C80.1062 19.9475 80.1683 19.7368 80.2082 19.5261C80.2481 19.3177 80.2725 19.1361 80.2836 18.9837C80.2925 18.8312 80.2992 18.7192 80.2992 18.6474V6.33461C80.2992 5.77422 80.2215 5.33039 80.0662 4.99865C79.9087 4.66914 79.7223 4.40912 79.5071 4.22083C79.2897 4.03254 79.059 3.91149 78.8127 3.86218C78.5642 3.81287 78.3423 3.78597 78.1404 3.78597C77.9785 3.78597 77.7832 3.81287 77.5503 3.86218C77.3195 3.91374 77.0999 4.02357 76.8936 4.18945C76.6872 4.35756 76.5075 4.6131 76.3567 4.95157C76.2058 5.29229 76.1304 5.74284 76.1304 6.30323V18.9388Z" fill="black" style="fill:black;fill-opacity:1;"/>
<path d="M86.6622 22.8167V2.18324C86.6622 1.66545 86.8441 1.22162 87.2058 0.856247C87.5674 0.490875 88.0067 0.307068 88.5192 0.307068H93.0053C93.7907 0.307068 94.545 0.531223 95.2639 0.979533C95.9849 1.42784 96.6172 2.06893 97.1608 2.90278C98.086 4.37772 98.5497 6.06785 98.5497 7.97092C98.5497 8.88548 98.4321 9.77313 98.1947 10.6272C97.9573 11.4812 97.6134 12.2747 97.1608 13.0077C96.9589 13.3237 96.7415 13.6062 96.5107 13.855C96.28 14.106 96.0515 14.3302 95.8318 14.5342L99.0799 22.0725C99.1997 22.328 99.2619 22.5813 99.2619 22.8369C99.2619 23.061 99.2153 23.2852 99.1265 23.5093C98.9357 23.9868 98.5985 24.3275 98.1148 24.5315C97.8619 24.6324 97.6156 24.6884 97.3738 24.6996C97.021 24.6996 96.6905 24.601 96.3843 24.4015C96.0781 24.2042 95.8385 23.9263 95.6677 23.5699L92.2399 15.6325H90.3806V22.8212C90.3806 23.3412 90.1987 23.7828 89.8371 24.1504C89.4754 24.5158 89.0362 24.6996 88.5236 24.6996C88.0111 24.6996 87.5719 24.5158 87.2102 24.1504C86.8486 23.7851 86.6667 23.3412 86.6667 22.8212M90.3829 11.8779H93.012C93.114 11.8779 93.2516 11.8085 93.4268 11.6717C93.6021 11.535 93.8062 11.3041 94.0392 10.9768C94.3121 10.5599 94.5117 10.0892 94.6426 9.56467C94.7735 9.04014 94.8401 8.5089 94.8401 7.96868C94.8401 7.42847 94.7713 6.89274 94.636 6.35925C94.5007 5.82576 94.301 5.34831 94.0392 4.93138C93.8084 4.61532 93.6043 4.39117 93.4268 4.26116C93.2516 4.12891 93.1118 4.06166 93.012 4.06166H90.3829V11.8757V11.8779Z" fill="black" style="fill:black;fill-opacity:1;"/>
<path d="M101.043 8.17944C101.043 7.66612 101.223 7.22678 101.583 6.86141C101.942 6.49828 102.388 6.31671 102.916 6.31671C103.444 6.31671 103.861 6.49828 104.221 6.86141C104.58 7.22454 104.76 7.66388 104.76 8.17944C104.76 8.695 104.58 9.16348 104.221 9.52661C103.861 9.88974 103.426 10.0713 102.916 10.0713C102.406 10.0713 101.942 9.88974 101.583 9.52661C101.223 9.16348 101.043 8.71293 101.043 8.17944ZM101.043 17.4281C101.043 16.9125 101.223 16.4732 101.583 16.1123C101.942 15.7492 102.388 15.5676 102.916 15.5676C103.444 15.5676 103.861 15.7492 104.221 16.1123C104.58 16.4754 104.76 16.9148 104.76 17.4281C104.76 17.9414 104.58 18.4121 104.221 18.7752C103.861 19.1384 103.426 19.3199 102.916 19.3199C102.406 19.3199 101.942 19.1384 101.583 18.7752C101.223 18.4121 101.043 17.9638 101.043 17.4281Z" fill="black" style="fill:black;fill-opacity:1;"/>
<path d="M107.009 22.8167V2.18101C107.009 1.82461 107.091 1.50631 107.258 1.22835C107.424 0.948161 107.642 0.726247 107.915 0.564856C108.227 0.381049 108.553 0.284662 108.897 0.275696H113.324C114.109 0.275696 114.861 0.499851 115.582 0.948161C116.301 1.39647 116.933 2.04652 117.477 2.90055C117.929 3.61336 118.276 4.40239 118.513 5.26538C118.75 6.13062 118.868 7.02052 118.868 7.93507C118.868 8.84962 118.75 9.73727 118.513 10.5913C118.276 11.4453 117.932 12.2388 117.477 12.9718C116.942 13.8057 116.314 14.4513 115.589 14.9108C114.863 15.368 114.109 15.5967 113.324 15.5967H110.726V22.8145C110.726 23.3323 110.544 23.7761 110.182 24.1437C109.82 24.5091 109.381 24.6929 108.869 24.6929C108.356 24.6929 107.917 24.5091 107.555 24.1437C107.193 23.7761 107.012 23.3345 107.012 22.8145M110.728 11.8398H113.326C113.428 11.8398 113.565 11.7704 113.741 11.6336C113.916 11.4969 114.12 11.266 114.353 10.9387C114.604 10.5218 114.801 10.0511 114.943 9.52657C115.083 9.00205 115.154 8.4708 115.154 7.93059C115.154 7.39037 115.081 6.85464 114.934 6.32115C114.788 5.78767 114.595 5.31246 114.353 4.89329C114.122 4.57723 113.918 4.35532 113.741 4.22306C113.563 4.09081 113.426 4.02357 113.326 4.02357H110.728V11.8376V11.8398Z" fill="black" style="fill:black;fill-opacity:1;"/>
</g>
<defs>
<clipPath id="clip0_1_89">
<rect width="118.868" height="25" fill="white" style="fill:white;fill-opacity:1;"/>
</clipPath>
</defs>
</svg>
