<svg width="209" height="66" viewBox="0 0 209 66" fill="none" xmlns="http://www.w3.org/2000/svg">
<path d="M47.74 15.54C47.74 15.54 47.74 16.54 47.74 17.54H63.14V46.84H47.05V63.37H17.86V48.74C17.29 48.74 16.75 48.8 16.16 48.8V65H48.75V48.49H64.81V15.75H47.74" fill="#4E4C4C" style="fill:#4E4C4C;fill:color(display-p3 0.3059 0.2980 0.2980);fill-opacity:1;"/>
<path d="M48.5 15.54V0H16.16V16.16H0V48.8H16.91C17.4773 48.8105 18.0448 48.7905 18.61 48.74C45.37 45.74 48.5 24.83 48.47 17.24C48.47 16.17 48.47 15.54 48.47 15.54" fill="#74BCB7" style="fill:#74BCB7;fill:color(display-p3 0.4549 0.7373 0.7176);fill-opacity:1;"/>
<path d="M95.78 16H104V42.92H99.38V19.05H99.49L93.7 42.92H87.27L81.41 19.07L81.52 19.01V42.92H76.93V16H85.11L90.58 40.31H90.26L95.78 16ZM118.51 43.3C116.63 43.3419 114.771 42.9012 113.11 42.02C111.576 41.1891 110.303 39.9501 109.43 38.44C108.539 36.8465 108.087 35.0452 108.12 33.22C108.082 31.4005 108.535 29.6044 109.43 28.02C110.307 26.521 111.58 25.2927 113.11 24.47C114.787 23.6282 116.638 23.1898 118.515 23.1898C120.392 23.1898 122.243 23.6282 123.92 24.47C125.438 25.2883 126.701 26.5098 127.57 28C128.479 29.5797 128.939 31.3779 128.9 33.2C128.936 35.0281 128.476 36.8319 127.57 38.42C126.709 39.9286 125.445 41.1681 123.92 42C122.258 42.8898 120.395 43.3374 118.51 43.3V43.3ZM118.51 39.38C119.53 39.403 120.536 39.136 121.41 38.61C122.245 38.0933 122.917 37.3516 123.35 36.47C123.83 35.4552 124.066 34.3423 124.04 33.22C124.068 32.1104 123.831 31.0102 123.35 30.01C122.925 29.1287 122.25 28.3916 121.41 27.89C120.532 27.375 119.528 27.1153 118.51 27.14C117.493 27.1205 116.49 27.3799 115.61 27.89C114.771 28.3889 114.097 29.1224 113.67 30C113.189 31.0002 112.952 32.1004 112.98 33.21C112.954 34.3323 113.19 35.4452 113.67 36.46C114.103 37.3416 114.775 38.0833 115.61 38.6C116.485 39.1245 117.49 39.3946 118.51 39.38V39.38ZM140.93 43.32C139.375 43.3307 137.844 42.9342 136.49 42.17C135.106 41.3547 133.98 40.1659 133.24 38.74C132.372 37.0146 131.946 35.1007 132 33.17C131.937 31.2769 132.364 29.3996 133.24 27.72C133.986 26.3388 135.094 25.1871 136.445 24.3889C137.797 23.5907 139.34 23.1762 140.91 23.19C142.394 23.1797 143.853 23.5738 145.13 24.33C146.42 25.0699 147.49 26.1399 148.23 27.43C149.033 28.8176 149.444 30.3971 149.42 32V32.29L147.05 32.34V32.11C147.074 31.2146 146.819 30.334 146.32 29.59C145.85 28.8799 145.206 28.3016 144.45 27.91C143.715 27.4938 142.884 27.2766 142.04 27.28C141.378 27.2696 140.721 27.3906 140.107 27.6361C139.492 27.8816 138.932 28.2466 138.46 28.71C137.926 29.315 137.521 30.0225 137.27 30.7894C137.019 31.5563 136.927 32.3664 137 33.17C136.931 33.9757 137.026 34.787 137.279 35.5551C137.531 36.3233 137.936 37.0324 138.47 37.64C139.41 38.5674 140.679 39.085 142 39.08C142.865 39.089 143.718 38.8682 144.47 38.44C145.217 38.0194 145.846 37.4176 146.3 36.69C146.779 35.912 147.025 35.0134 147.01 34.1L149.38 34.21C149.402 35.8298 149.006 37.4279 148.23 38.85C147.514 40.1835 146.463 41.3071 145.18 42.11C143.908 42.912 142.433 43.3319 140.93 43.32V43.32ZM147.05 42.92V14.37H151.87V42.92H147.05ZM163.57 43.28C162.389 43.3203 161.214 43.084 160.14 42.59C159.286 42.1675 158.55 41.5385 158 40.76C157.489 39.9994 157.119 39.1524 156.91 38.26C156.703 37.3613 156.599 36.4421 156.6 35.52V23.52H161.42V34.28C161.412 35.0938 161.516 35.9048 161.73 36.69C161.913 37.3834 162.308 38.0022 162.86 38.46C163.546 38.9502 164.379 39.1903 165.22 39.14C166.12 39.1609 166.998 38.8634 167.7 38.3C168.401 37.7182 168.953 36.9777 169.31 36.14C169.69 35.3153 169.888 34.4182 169.89 33.51L171.54 34.61C171.552 35.7624 171.37 36.9085 171 38C170.644 39.01 170.105 39.9457 169.41 40.76C168.713 41.5636 167.854 42.211 166.89 42.66C165.842 43.1057 164.709 43.3173 163.57 43.28V43.28ZM169.89 42.92V23.52H174.7V42.92H169.89ZM191.37 42.92V31.8C191.369 31.3053 191.339 30.8111 191.28 30.32C191.229 29.8176 191.094 29.3275 190.88 28.87C190.658 28.4262 190.31 28.0576 189.88 27.81C189.343 27.5028 188.728 27.357 188.11 27.39C187.496 27.3636 186.886 27.4983 186.341 27.7808C185.795 28.0632 185.333 28.4836 185 29C184.671 29.5152 184.434 30.0836 184.3 30.68C184.156 31.3098 184.082 31.9538 184.08 32.6L182.47 31.52C182.444 30.0438 182.752 28.5808 183.37 27.24C183.923 26.0243 184.802 24.9858 185.91 24.24C187.074 23.4798 188.44 23.0894 189.83 23.12C191.141 23.0527 192.44 23.4028 193.54 24.12C194.472 24.7586 195.174 25.6809 195.54 26.75C195.955 27.9491 196.158 29.2113 196.14 30.48V42.92H191.37ZM179.32 42.92V23.52H184.12V42.92H179.32ZM203.32 42.92V31.76C203.32 31.2487 203.29 30.7378 203.23 30.23C203.183 29.7397 203.048 29.2619 202.83 28.82C202.608 28.3911 202.259 28.0417 201.83 27.82C201.282 27.5213 200.663 27.3794 200.04 27.41C199.386 27.3905 198.738 27.5422 198.16 27.85C197.687 28.135 197.289 28.5293 197 29C196.685 29.5095 196.456 30.0668 196.32 30.65C196.189 31.2478 196.122 31.8579 196.12 32.47L194.51 31.41C194.487 29.9684 194.787 28.5399 195.39 27.23C195.937 26.0325 196.81 25.0135 197.91 24.29C199.073 23.5382 200.436 23.1548 201.82 23.19C203.11 23.127 204.389 23.4546 205.49 24.13C206.406 24.7508 207.105 25.6424 207.49 26.68C207.931 27.8524 208.148 29.0974 208.13 30.35V42.92H203.32Z" fill="#38605C" style="fill:#38605C;fill:color(display-p3 0.2196 0.3765 0.3608);fill-opacity:1;"/>
<path d="M82.06 65C81.1002 65.0293 80.1453 64.852 79.26 64.48C78.5265 64.1522 77.9168 63.5986 77.52 62.9C77.1034 62.084 76.9004 61.1757 76.93 60.26V59.47H78.29V60.24C78.2363 60.7416 78.2936 61.2488 78.4577 61.7258C78.6219 62.2027 78.889 62.6377 79.24 63C80.0379 63.608 81.029 63.9064 82.03 63.84C83.0281 63.9117 84.0231 63.663 84.87 63.13C85.1935 62.8712 85.4491 62.5374 85.6147 62.1575C85.7802 61.7777 85.8507 61.3632 85.82 60.95C85.841 60.3473 85.6655 59.7542 85.32 59.26C84.9406 58.7759 84.4547 58.3858 83.9 58.12C83.2155 57.787 82.5068 57.5062 81.78 57.28C80.925 57.0142 80.1004 56.6589 79.32 56.22C78.6549 55.8421 78.0866 55.3149 77.66 54.68C77.2344 54.0198 77.0215 53.245 77.05 52.46C77.0228 51.694 77.2361 50.9386 77.66 50.3C78.0797 49.6995 78.6677 49.2368 79.35 48.97C80.1782 48.6626 81.0567 48.5133 81.94 48.53C82.8706 48.5057 83.7964 48.6725 84.66 49.02C85.3901 49.3121 86.007 49.8309 86.42 50.5C86.843 51.2628 87.0439 52.1289 87 53V53.89H85.68V53C85.7261 52.5277 85.6595 52.0512 85.4856 51.6097C85.3118 51.1681 85.0357 50.7741 84.68 50.46C83.8936 49.9227 82.9507 49.6623 82 49.72C81.07 49.6648 80.1454 49.895 79.35 50.38C79.0425 50.6112 78.7968 50.9147 78.6346 51.2636C78.4724 51.6124 78.3987 51.9959 78.42 52.38C78.3944 52.9972 78.5893 53.6034 78.97 54.09C79.3839 54.5784 79.8992 54.9708 80.48 55.24C81.1828 55.5816 81.9078 55.8756 82.65 56.12C83.5028 56.383 84.3244 56.7385 85.1 57.18C85.7361 57.5255 86.2732 58.0281 86.66 58.64C87.0259 59.3235 87.2114 60.0889 87.1992 60.8641C87.1869 61.6392 86.9773 62.3984 86.59 63.07C86.1697 63.7133 85.5625 64.2123 84.85 64.5C83.9646 64.8579 83.0146 65.0282 82.06 65V65ZM94.17 65C93.3748 65.0178 92.5837 64.882 91.84 64.6C91.2218 64.3666 90.6861 63.9562 90.3 63.42C89.9284 62.8687 89.7394 62.2145 89.76 61.55C89.7356 60.8897 89.9366 60.2408 90.33 59.71C90.7719 59.1889 91.3502 58.8011 92 58.59C92.7889 58.281 93.6167 58.0825 94.46 58C95.5313 57.9084 96.5964 57.7549 97.65 57.54C98.3 57.38 98.65 57.12 98.65 56.77V56.62C98.6614 56.2736 98.5826 55.9302 98.4214 55.6234C98.2601 55.3166 98.0218 55.057 97.73 54.87C96.9394 54.4026 96.0267 54.1831 95.11 54.24C94.1367 54.1835 93.1696 54.4279 92.34 54.94C92.0106 55.1734 91.7459 55.4868 91.571 55.8507C91.3961 56.2145 91.3166 56.6169 91.34 57.02H90C89.9774 56.2547 90.1979 55.502 90.63 54.87C91.0802 54.2438 91.7018 53.7611 92.42 53.48C93.2733 53.1461 94.1839 52.9831 95.1 53C95.9464 52.9859 96.7878 53.1317 97.58 53.43C98.2701 53.6775 98.879 54.1099 99.34 54.68C99.7816 55.2514 100.011 55.9582 99.99 56.68V62.74C99.9745 62.9798 99.9745 63.2202 99.99 63.46C100.006 63.6585 100.036 63.8556 100.08 64.05C100.134 64.2231 100.204 64.3906 100.29 64.55C100.338 64.6416 100.398 64.7258 100.47 64.8H99.14C99.084 64.7404 99.0368 64.6731 99 64.6C98.9201 64.4528 98.8532 64.2989 98.8 64.14C98.7361 63.9421 98.6958 63.7373 98.68 63.53C98.68 63.3 98.68 63.03 98.68 62.71L98.89 62.87C98.644 63.3185 98.3026 63.7076 97.89 64.01C97.4034 64.3518 96.8624 64.6088 96.29 64.77C95.5978 64.9467 94.884 65.0242 94.17 65V65ZM94.38 63.79C95.1119 63.8004 95.8388 63.6679 96.52 63.4C97.1212 63.1705 97.6496 62.7837 98.05 62.28C98.4375 61.7729 98.6388 61.1479 98.62 60.51V57.83L98.92 58.34C98.3697 58.5891 97.7875 58.7607 97.19 58.85C96.46 58.98 95.66 59.08 94.81 59.16C93.8563 59.203 92.921 59.4377 92.06 59.85C91.7606 60.0092 91.5135 60.2515 91.3485 60.5477C91.1835 60.844 91.1077 61.1816 91.13 61.52C91.1201 61.8551 91.1945 62.1873 91.3466 62.4861C91.4986 62.7849 91.7233 63.0407 92 63.23C92.7137 63.6677 93.5441 63.8771 94.38 63.83V63.79ZM105 47.71V64.83H103.66V47.71H105ZM113 65.03C112.281 65.0547 111.567 64.9037 110.92 64.59C110.41 64.3238 109.974 63.9356 109.65 63.46C109.348 63.0027 109.131 62.4945 109.01 61.96C108.894 61.4682 108.834 60.9651 108.83 60.46V53.2H110.2V60.2C110.197 60.7972 110.288 61.3911 110.47 61.96C110.646 62.4913 110.977 62.9579 111.42 63.3C111.953 63.6671 112.594 63.8465 113.24 63.81C113.92 63.8216 114.586 63.6148 115.14 63.22C115.687 62.8337 116.13 62.3185 116.43 61.72C116.735 61.1365 116.896 60.4885 116.9 59.83L117.73 60.17C117.728 60.7686 117.616 61.3618 117.4 61.92C117.186 62.4947 116.871 63.0265 116.47 63.49C116.063 63.9743 115.554 64.3635 114.98 64.63C114.327 64.9193 113.613 65.0462 112.9 65L113 65.03ZM116.9 64.83V53.2H118.26V64.83H116.9ZM126.42 65.04C125.498 65.0631 124.589 64.816 123.805 64.3291C123.022 63.8423 122.398 63.137 122.01 62.3C121.535 61.2737 121.305 60.1506 121.34 59.02C121.308 57.895 121.541 56.7782 122.02 55.76C122.326 55.1629 122.749 54.6334 123.264 54.2032C123.779 53.7729 124.375 53.4507 125.017 53.2557C125.659 53.0607 126.333 52.9968 127 53.068C127.668 53.1392 128.314 53.3439 128.9 53.67C129.655 54.0705 130.29 54.664 130.74 55.39C131.203 56.1297 131.443 56.9874 131.43 57.86V58H130.43V57.9C130.435 57.2546 130.25 56.622 129.9 56.08C129.542 55.5302 129.054 55.0769 128.48 54.76C127.908 54.4317 127.259 54.2625 126.6 54.27C126.078 54.2555 125.559 54.3544 125.079 54.5599C124.599 54.7653 124.17 55.0724 123.82 55.46C122.991 56.4476 122.566 57.7121 122.63 59C122.537 60.2779 122.926 61.5443 123.72 62.55C124.07 62.9376 124.499 63.2447 124.979 63.4501C125.459 63.6556 125.978 63.7545 126.5 63.74C127.169 63.7476 127.828 63.5786 128.41 63.25C128.981 62.922 129.461 62.4583 129.81 61.9C130.16 61.3326 130.341 60.6767 130.33 60.01H131.33C131.342 60.9031 131.106 61.7821 130.65 62.55C130.21 63.2924 129.582 63.9062 128.83 64.33C128.069 64.776 127.202 65.0076 126.32 65L126.42 65.04ZM130.42 64.83V47.71H131.78V64.83H130.42Z" fill="#4E4C4C" style="fill:#4E4C4C;fill:color(display-p3 0.3059 0.2980 0.2980);fill-opacity:1;"/>
</svg>
