<svg width="140" height="33" viewBox="0 0 140 33" fill="none" xmlns="http://www.w3.org/2000/svg">
<g clip-path="url(#clip0_1_107)">
<path d="M5.35079 17.0609C6.33226 16.5802 7.5241 16.3398 8.9262 16.3398V19.134C8.7659 19.114 8.5456 19.104 8.2652 19.104C6.70282 19.104 5.47598 19.5697 4.58463 20.5011C3.69329 21.4325 3.24762 22.7595 3.24762 24.4821V32.414H0.363281V16.4901H3.12744V19.1641C3.6282 18.2427 4.36931 17.5416 5.35079 17.0609Z" fill="#4F4F4F" style="fill:#4F4F4F;fill:color(display-p3 0.3098 0.3098 0.3098);fill-opacity:1;"/>
<path d="M26.8038 25.4135H13.8843C14.0646 26.8156 14.6805 27.9423 15.7321 28.7936C16.7837 29.6449 18.0907 30.0705 19.653 30.0705C21.5559 30.0705 23.0882 29.4295 24.2499 28.1476L25.8423 30.0104C25.1213 30.8517 24.2249 31.4926 23.1533 31.9333C22.0817 32.374 20.8849 32.5943 19.5629 32.5943C17.8804 32.5943 16.3881 32.2488 15.0862 31.5577C13.7842 30.8667 12.7777 29.9002 12.0666 28.6584C11.3555 27.4165 11 26.0144 11 24.452C11 22.9097 11.3455 21.5176 12.0366 20.2758C12.7276 19.0339 13.679 18.0674 14.8909 17.3764C16.1027 16.6854 17.4697 16.3398 18.992 16.3398C20.5143 16.3398 21.8714 16.6854 23.0632 17.3764C24.2549 18.0674 25.1863 19.0339 25.8574 20.2758C26.5284 21.5176 26.8639 22.9398 26.8639 24.5422C26.8639 24.7625 26.8438 25.0529 26.8038 25.4135ZM15.5218 20.0354C14.5904 20.8767 14.0446 21.9783 13.8843 23.3404H24.0997C23.9395 21.9983 23.3937 20.9017 22.4622 20.0504C21.5308 19.1991 20.3741 18.7735 18.992 18.7735C17.61 18.7735 16.4532 19.1941 15.5218 20.0354Z" fill="#4F4F4F" style="fill:#4F4F4F;fill:color(display-p3 0.3098 0.3098 0.3098);fill-opacity:1;"/>
<path d="M33.9696 31.5427C32.6977 30.8417 31.7012 29.8752 30.9801 28.6434C30.259 27.4115 29.8984 26.0144 29.8984 24.452C29.8984 22.8897 30.259 21.4926 30.9801 20.2607C31.7012 19.0289 32.6977 18.0674 33.9696 17.3764C35.2415 16.6854 36.6887 16.3398 38.3111 16.3398C39.7533 16.3398 41.0402 16.6303 42.1719 17.2111C43.3036 17.792 44.1799 18.6333 44.8009 19.7349L42.6076 21.1471C42.1068 20.3859 41.4859 19.8151 40.7448 19.4345C40.0036 19.0539 39.1824 18.8636 38.281 18.8636C37.2395 18.8636 36.3031 19.094 35.4718 19.5547C34.6406 20.0154 33.9896 20.6714 33.5189 21.5226C33.0482 22.3739 32.8128 23.3504 32.8128 24.452C32.8128 25.5737 33.0482 26.5602 33.5189 27.4115C33.9896 28.2628 34.6406 28.9188 35.4718 29.3795C36.3031 29.8402 37.2395 30.0705 38.281 30.0705C39.1824 30.0705 40.0036 29.8802 40.7448 29.4996C41.4859 29.1191 42.1068 28.5482 42.6076 27.7871L44.8009 29.1691C44.1799 30.2708 43.3036 31.1171 42.1719 31.708C41.0402 32.2989 39.7533 32.5943 38.3111 32.5943C36.6887 32.5943 35.2415 32.2438 33.9696 31.5427Z" fill="#4F4F4F" style="fill:#4F4F4F;fill:color(display-p3 0.3098 0.3098 0.3098);fill-opacity:1;"/>
<path d="M62.9171 25.4135H49.9976C50.1779 26.8156 50.7938 27.9423 51.8454 28.7936C52.897 29.6449 54.204 30.0705 55.7663 30.0705C57.6692 30.0705 59.2015 29.4295 60.3632 28.1476L61.9556 30.0104C61.2345 30.8517 60.3382 31.4926 59.2666 31.9333C58.195 32.374 56.9982 32.5943 55.6762 32.5943C53.9936 32.5943 52.5014 32.2488 51.1994 31.5577C49.8975 30.8667 48.891 29.9002 48.1799 28.6584C47.4688 27.4165 47.1133 26.0144 47.1133 24.452C47.1133 22.9097 47.4588 21.5176 48.1498 20.2758C48.8409 19.0339 49.7923 18.0674 51.0041 17.3764C52.216 16.6854 53.583 16.3398 55.1053 16.3398C56.6276 16.3398 57.9846 16.6854 59.1764 17.3764C60.3682 18.0674 61.2996 19.0339 61.9706 20.2758C62.6416 21.5176 62.9772 22.9398 62.9772 24.5422C62.9772 24.7625 62.9571 25.0529 62.9171 25.4135ZM51.6351 20.0354C50.7037 20.8767 50.1579 21.9783 49.9976 23.3404H60.213C60.0527 21.9983 59.5069 20.9017 58.5755 20.0504C57.6441 19.1991 56.4874 18.7735 55.1053 18.7735C53.7232 18.7735 52.5665 19.1941 51.6351 20.0354Z" fill="#4F4F4F" style="fill:#4F4F4F;fill:color(display-p3 0.3098 0.3098 0.3098);fill-opacity:1;"/>
<path d="M81.755 25.4135H68.8355C69.0158 26.8156 69.6317 27.9423 70.6833 28.7936C71.7349 29.6449 73.0418 30.0705 74.6042 30.0705C76.5071 30.0705 78.0394 29.4295 79.2011 28.1476L80.7935 30.0104C80.0724 30.8517 79.1761 31.4926 78.1045 31.9333C77.0328 32.374 75.836 32.5943 74.5141 32.5943C72.8315 32.5943 71.3393 32.2488 70.0373 31.5577C68.7354 30.8667 67.7288 29.9002 67.0178 28.6584C66.3067 27.4165 65.9512 26.0144 65.9512 24.452C65.9512 22.9097 66.2967 21.5176 66.9877 20.2758C67.6788 19.0339 68.6302 18.0674 69.842 17.3764C71.0539 16.6854 72.4209 16.3398 73.9432 16.3398C75.4655 16.3398 76.8225 16.6854 78.0143 17.3764C79.2061 18.0674 80.1375 19.0339 80.8085 20.2758C81.4795 21.5176 81.815 22.9398 81.815 24.5422C81.815 24.7625 81.795 25.0529 81.755 25.4135ZM70.473 20.0354C69.5416 20.8767 68.9958 21.9783 68.8355 23.3404H79.0509C78.8906 21.9983 78.3448 20.9017 77.4134 20.0504C76.482 19.1991 75.3253 18.7735 73.9432 18.7735C72.5611 18.7735 71.4044 19.1941 70.473 20.0354Z" fill="#4F4F4F" style="fill:#4F4F4F;fill:color(display-p3 0.3098 0.3098 0.3098);fill-opacity:1;"/>
<path d="M99.452 16.49L92.4813 32.4139H89.5369L82.5664 16.49H85.5709L91.0392 29.2592L96.6276 16.49H99.452Z" fill="#4F4F4F" style="fill:#4F4F4F;fill:color(display-p3 0.3098 0.3098 0.3098);fill-opacity:1;"/>
<path d="M115.888 25.4135H102.968C103.149 26.8156 103.765 27.9423 104.816 28.7936C105.868 29.6449 107.175 30.0705 108.737 30.0705C110.64 30.0705 112.172 29.4295 113.334 28.1476L114.926 30.0104C114.205 30.8517 113.309 31.4926 112.237 31.9333C111.166 32.374 109.969 32.5943 108.647 32.5943C106.964 32.5943 105.472 32.2488 104.17 31.5577C102.868 30.8667 101.862 29.9002 101.151 28.6584C100.44 27.4165 100.084 26.0144 100.084 24.452C100.084 22.9097 100.43 21.5176 101.121 20.2758C101.812 19.0339 102.763 18.0674 103.975 17.3764C105.187 16.6854 106.554 16.3398 108.076 16.3398C109.598 16.3398 110.955 16.6854 112.147 17.3764C113.339 18.0674 114.27 19.0339 114.941 20.2758C115.612 21.5176 115.948 22.9398 115.948 24.5422C115.948 24.7625 115.928 25.0529 115.888 25.4135ZM104.606 20.0354C103.674 20.8767 103.129 21.9783 102.968 23.3404H113.184C113.023 21.9983 112.478 20.9017 111.546 20.0504C110.615 19.1991 109.458 18.7735 108.076 18.7735C106.694 18.7735 105.537 19.1941 104.606 20.0354Z" fill="#4F4F4F" style="fill:#4F4F4F;fill:color(display-p3 0.3098 0.3098 0.3098);fill-opacity:1;"/>
<path d="M135.105 12.6968C135.105 12.2787 134.882 11.8918 134.519 11.6815L129.049 8.52304C128.685 8.31394 128.24 8.31394 127.877 8.52304L125.826 9.70734V11.3773C125.826 11.7954 126.049 12.1823 126.412 12.3926L131.883 15.5511C132.246 15.7601 132.692 15.7601 133.055 15.5511L135.105 14.3668V12.6968Z" fill="#31B1FF" style="fill:#31B1FF;fill:color(display-p3 0.1922 0.6941 1.0000);fill-opacity:1;"/>
<path d="M131.883 15.5511L126.412 12.3926C126.049 12.1835 125.826 11.7967 125.826 11.3773V9.70734L122.406 11.6815C122.043 11.8906 121.82 12.2774 121.82 12.6968V19.0138C121.82 19.4319 122.043 19.8187 122.406 20.0291L127.877 23.1876C128.24 23.3966 128.686 23.3966 129.049 23.1876L134.519 20.0291C134.882 19.82 135.105 19.4331 135.105 19.0138V14.3668L133.055 15.5511C132.693 15.7601 132.246 15.7601 131.883 15.5511Z" fill="#2E60FF" style="fill:#2E60FF;fill:color(display-p3 0.1804 0.3765 1.0000);fill-opacity:1;"/>
<path d="M135.105 14.3668V12.6968C135.105 12.2787 134.882 11.8918 134.519 11.6815L129.049 8.52301C128.685 8.31401 128.24 8.31401 127.877 8.52301L125.826 9.70731V5.06032C125.826 4.64219 126.049 4.25536 126.412 4.04504L131.883 0.886539C132.246 0.677469 132.692 0.677469 133.055 0.886539L138.525 4.04504C138.888 4.2541 139.111 4.64093 139.111 5.06032V11.3773C139.111 11.7954 138.888 12.1823 138.525 12.3926L135.105 14.3668Z" fill="#2DD5FF" style="fill:#2DD5FF;fill:color(display-p3 0.1765 0.8353 1.0000);fill-opacity:1;"/>
</g>
<defs>
<clipPath id="clip0_1_107">
<rect width="140" height="33" fill="white" style="fill:white;fill-opacity:1;"/>
</clipPath>
</defs>
</svg>
