<svg width="78" height="40" viewBox="0 0 78 40" fill="none" xmlns="http://www.w3.org/2000/svg">
<g clip-path="url(#clip0_6676_10304)">
<path d="M18.5147 5C15.4686 5 12.5473 6.21005 10.3934 8.36396L3.36396 15.3934C1.21005 17.5473 0 20.4686 0 23.5147C0 29.8579 5.14214 35 11.4853 35C14.5314 35 17.4527 33.7899 19.6066 31.636L24.4689 26.7737C24.469 26.7738 24.4689 26.7736 24.4689 26.7737L38.636 12.6066C39.6647 11.5779 41.0599 11 42.5147 11C44.9503 11 47.0152 12.5874 47.7311 14.7841L52.2022 10.313C50.1625 7.11834 46.586 5 42.5147 5C39.4686 5 36.5473 6.21005 34.3934 8.36396L15.364 27.3934C14.3353 28.4221 12.9401 29 11.4853 29C8.45584 29 6 26.5442 6 23.5147C6 22.0599 6.57791 20.6647 7.6066 19.636L14.636 12.6066C15.6647 11.5779 17.0599 11 18.5147 11C20.9504 11 23.0152 12.5875 23.7311 14.7842L28.2023 10.3131C26.1626 7.1184 22.5861 5 18.5147 5Z" fill="#394149" style="fill:#394149;fill:color(display-p3 0.2235 0.2549 0.2863);fill-opacity:1;"/>
<path d="M39.3639 27.3934C38.3352 28.4221 36.94 29 35.4852 29C33.0499 29 30.9852 27.413 30.2691 25.2167L25.7981 29.6877C27.8379 32.8819 31.4142 35 35.4852 35C38.5313 35 41.4526 33.7899 43.6065 31.636L62.6359 12.6066C63.6646 11.5779 65.0598 11 66.5146 11C69.5441 11 71.9999 13.4558 71.9999 16.4853C71.9999 17.9401 71.422 19.3353 70.3933 20.364L63.3639 27.3934C62.3352 28.4221 60.94 29 59.4852 29C57.0497 29 54.9849 27.4127 54.2689 25.2162L49.7979 29.6873C51.8376 32.8818 55.414 35 59.4852 35C62.5313 35 65.4526 33.7899 67.6065 31.636L74.6359 24.6066C76.7898 22.4527 77.9999 19.5314 77.9999 16.4853C77.9999 10.1421 72.8578 5 66.5146 5C63.4685 5 60.5472 6.21005 58.3933 8.36396L39.3639 27.3934Z" fill="#394149" style="fill:#394149;fill:color(display-p3 0.2235 0.2549 0.2863);fill-opacity:1;"/>
</g>
<defs>
<clipPath id="clip0_6676_10304">
<rect width="78" height="30" fill="white" style="fill:white;fill-opacity:1;" transform="translate(0 5)"/>
</clipPath>
</defs>
</svg>
