<svg width="40" height="40" viewBox="0 0 40 40" fill="none" xmlns="http://www.w3.org/2000/svg">
<path fill-rule="evenodd" clip-rule="evenodd" d="M20 0C31.0453 0 40.0003 8.95431 40.0003 20C40.0003 31.0457 31.0453 40 20 40C8.9543 40 0 31.0457 0 20C0 8.95431 8.9543 0 20 0ZM19.2771 1.49659C16.9954 1.81769 14.8228 3.65108 13.1363 6.7174C12.6471 7.60683 12.2057 8.58946 11.8211 9.65044C14.1143 9.07417 16.6334 8.73442 19.2771 8.68187V1.49659ZM10.1307 10.1308C10.6091 8.62958 11.1942 7.2484 11.8695 6.02065C12.7055 4.50059 13.6977 3.18795 14.8156 2.17977C8.7367 3.94523 3.9452 8.73679 2.1797 14.8157C3.1879 13.6978 4.5005 12.7056 6.0206 11.8696C7.2484 11.1943 8.6295 10.6091 10.1307 10.1308ZM9.6504 11.8211C9.0741 14.1143 8.7344 16.6334 8.6818 19.2771H1.4965C1.8176 16.9954 3.651 14.8228 6.7174 13.1364C7.6068 12.6472 8.5894 12.2058 9.6504 11.8211ZM10.1279 19.2771C10.1876 16.392 10.603 13.6834 11.2902 11.2902C13.6834 10.603 16.392 10.1876 19.2771 10.1279V13.2508C18.2008 16.0062 16.0056 18.2012 13.2501 19.2771H10.1279ZM8.6818 20.7229H1.4965C1.8176 23.0046 3.651 25.1771 6.7174 26.8636C7.6068 27.3528 8.5894 27.7942 9.6504 28.1789C9.0741 25.8857 8.7344 23.3666 8.6818 20.7229ZM11.2902 28.7098C10.603 26.3166 10.1876 23.608 10.1279 20.7229H13.2501C16.0056 21.7988 18.2008 23.9938 19.2771 26.7492V29.8721C16.392 29.8124 13.6834 29.397 11.2902 28.7098ZM10.1307 29.8692C8.6295 29.3909 7.2484 28.8057 6.0206 28.1304C4.5005 27.2944 3.1879 26.3022 2.1797 25.1843C3.9452 31.2632 8.7367 36.0548 14.8156 37.8202C13.6977 36.812 12.7055 35.4994 11.8695 33.9793C11.1942 32.7516 10.6091 31.3704 10.1307 29.8692ZM19.2771 38.5034C16.9954 38.1823 14.8228 36.3489 13.1363 33.2826C12.6471 32.3932 12.2057 31.4105 11.8211 30.3496C14.1143 30.9258 16.6334 31.2656 19.2771 31.3181V38.5034ZM25.1843 37.8202C26.3022 36.812 27.2943 35.4994 28.1303 33.9793C28.8053 32.7516 29.3913 31.3704 29.8693 29.8692C31.3703 29.3909 32.7513 28.8057 33.9793 28.1304C35.4993 27.2944 36.8123 26.3022 37.8203 25.1843C36.0543 31.2632 31.2633 36.0548 25.1843 37.8202ZM28.1793 30.3496C27.7943 31.4105 27.3523 32.3932 26.8633 33.2826C25.1771 36.3489 23.0045 38.1823 20.7228 38.5034V31.3181C23.3665 31.2656 25.8856 30.9258 28.1793 30.3496ZM30.3493 28.1789C31.4103 27.7942 32.3933 27.3528 33.2823 26.8636C36.3493 25.1772 38.1823 23.0046 38.5033 20.7229H31.3183C31.2653 23.3666 30.9253 25.8857 30.3493 28.1789ZM29.8723 20.7229C29.8123 23.608 29.3973 26.3166 28.7093 28.7098C26.3165 29.397 23.6079 29.8124 20.7228 29.8721V26.7515C21.7988 23.9951 23.9945 21.7991 26.7507 20.7229H29.8723ZM31.3183 19.2771H38.5033C38.1823 16.9954 36.3493 14.8228 33.2823 13.1364C32.3933 12.6472 31.4103 12.2058 30.3493 11.8211C30.9253 14.1143 31.2653 16.6334 31.3183 19.2771ZM28.7093 11.2902C29.3973 13.6834 29.8123 16.392 29.8723 19.2771H26.7508C23.9945 18.2009 21.7988 16.0049 20.7228 13.2485V10.1279C23.6079 10.1876 26.3165 10.603 28.7093 11.2902ZM29.8693 10.1308C31.3703 10.6091 32.7513 11.1943 33.9793 11.8696C35.4993 12.7056 36.8123 13.6978 37.8203 14.8157C36.0543 8.73679 31.2633 3.94523 25.1843 2.17977C26.3022 3.18795 27.2943 4.50059 28.1303 6.02065C28.8053 7.2484 29.3913 8.62958 29.8693 10.1308ZM20.7228 1.49659C23.0045 1.81769 25.1771 3.65108 26.8633 6.7174C27.3523 7.60684 27.7943 8.58946 28.1793 9.65044C25.8856 9.07417 23.3665 8.73442 20.7228 8.68187V1.49659Z" fill="black" style="fill:black;fill-opacity:1;"/>
</svg>
